<?xml version="1.0" encoding="UTF-8"?>
<svg version="1.1" xmlns="http://www.w3.org/2000/svg" width="1024" height="1024">
<path d="M0 0 C1.14789456 0.00037972 2.29578912 0.00075944 3.47846836 0.00115067 C4.79718293 -0.00084038 6.11589751 -0.00283143 7.47457314 -0.00488281 C8.95726585 -0.00202921 10.43995839 0.0009164 11.92265075 0.00394398 C13.48268853 0.00350841 15.04272623 0.00263378 16.60276353 0.00135481 C20.91030834 -0.00089304 25.21782852 0.00313508 29.52537018 0.00813287 C34.16275108 0.01243305 38.80013048 0.01099126 43.43751281 0.0102306 C51.47895969 0.00970509 59.52039849 0.01285472 67.56184334 0.01846844 C79.18856377 0.02657978 90.81528028 0.02919828 102.44200324 0.03045643 C121.30351016 0.03264753 140.16501276 0.03930918 159.02651733 0.04875904 C177.35366555 0.05793167 195.6808126 0.06501323 214.00796264 0.06926686 C215.13678425 0.06952958 216.26560585 0.0697923 217.42863417 0.07006299 C223.09134247 0.07136798 228.75405077 0.0726317 234.41675907 0.07387489 C281.42852718 0.0842493 328.44029059 0.10186918 375.45205444 0.1241985 C375.45205444 0.4541985 375.45205444 0.7841985 375.45205444 1.1241985 C376.05453003 1.24424244 376.65700561 1.36428639 377.27773803 1.48796803 C404.3183579 6.9433066 431.1448468 15.20148925 453.45205444 32.1241985 C454.48717163 32.87958912 455.52228882 33.63497975 456.58877319 34.413261 C493.31792879 61.55733584 517.51903489 101.00368131 524.77114624 146.10881764 C525.80430111 153.75742346 525.5611387 161.48623334 525.51455444 169.1866985 C525.50952858 170.63917091 525.5049676 172.09164501 525.50088257 173.54412037 C525.48996486 177.07084864 525.4727603 180.59751251 525.45205444 184.1241985 C526.11205444 184.1241985 526.77205444 184.1241985 527.45205444 184.1241985 C527.12205444 184.7841985 526.79205444 185.4441985 526.45205444 186.1241985 C526.36068784 188.09526394 526.33453476 190.06947766 526.33852905 192.04265553 C526.33860458 193.28379109 526.33868011 194.52492665 526.33875793 195.80367237 C526.34386494 197.16311898 526.34908094 198.52256519 526.35439819 199.882011 C526.35626302 201.26920734 526.35768662 202.65640434 526.35868591 204.04360157 C526.36250596 207.69654362 526.37233189 211.34944597 526.38338989 215.00237232 C526.393615 218.7291735 526.39818589 222.45598109 526.40322632 226.18279225 C526.41395461 233.49661244 526.4310249 240.81039991 526.45205444 248.1241985 C526.78205444 248.1241985 527.11205444 248.1241985 527.45205444 248.1241985 C527.45205444 250.1041985 527.45205444 252.0841985 527.45205444 254.1241985 C527.12205444 254.1241985 526.79205444 254.1241985 526.45205444 254.1241985 C526.12205444 268.6441985 525.79205444 283.1641985 525.45205444 298.1241985 C526.11205444 298.1241985 526.77205444 298.1241985 527.45205444 298.1241985 C527.45205444 299.7741985 527.45205444 301.4241985 527.45205444 303.1241985 C527.12205444 303.1241985 526.79205444 303.1241985 526.45205444 303.1241985 C526.12205444 308.7341985 525.79205444 314.3441985 525.45205444 320.1241985 C526.11205444 320.1241985 526.77205444 320.1241985 527.45205444 320.1241985 C527.45205444 322.1041985 527.45205444 324.0841985 527.45205444 326.1241985 C527.12205444 326.1241985 526.79205444 326.1241985 526.45205444 326.1241985 C526.42893394 339.79722412 526.41114085 353.47024513 526.40024227 367.14328629 C526.3950128 373.49150426 526.387914 379.8397089 526.37661499 386.1879192 C526.36578838 392.30868432 526.35977809 398.42943658 526.3571772 404.55021054 C526.35532254 406.89110793 526.35170115 409.23200458 526.34632438 411.57289654 C526.33911696 414.83928052 526.33806337 418.10561065 526.33852905 421.37200123 C526.33493377 422.3502335 526.3313385 423.32846577 526.32763427 424.33634144 C526.32900894 425.22120228 526.3303836 426.10606312 526.33179992 427.01773793 C526.33087813 427.79112224 526.32995634 428.56450655 526.32900661 429.36132675 C526.26020454 431.15106677 526.26020454 431.15106677 527.45205444 432.1241985 C527.49371207 434.12376461 527.49371207 436.12463238 527.45205444 438.1241985 C527.45205444 438.4541985 527.45205444 438.7841985 527.45205444 439.1241985 C527.45205444 444.1241985 527.45205444 449.1241985 527.45205444 454.1241985 C527.12205444 454.1241985 526.79205444 454.1241985 526.45205444 454.1241985 C526.45205444 457.0941985 526.45205444 460.0641985 526.45205444 463.1241985 C526.78205444 463.1241985 527.11205444 463.1241985 527.45205444 463.1241985 C527.45205444 466.0941985 527.45205444 469.0641985 527.45205444 472.1241985 C527.12205444 472.1241985 526.79205444 472.1241985 526.45205444 472.1241985 C526.12205444 477.4041985 525.79205444 482.6841985 525.45205444 488.1241985 C526.11205444 488.1241985 526.77205444 488.1241985 527.45205444 488.1241985 C526.79205444 490.7641985 526.13205444 493.4041985 525.45205444 496.1241985 C526.11205444 496.1241985 526.77205444 496.1241985 527.45205444 496.1241985 C527.57705444 498.9991985 527.57705444 498.9991985 527.45205444 502.1241985 C526.79205444 502.7841985 526.13205444 503.4441985 525.45205444 504.1241985 C526.11205444 504.4541985 526.77205444 504.7841985 527.45205444 505.1241985 C526.79205444 505.1241985 526.13205444 505.1241985 525.45205444 505.1241985 C525.45205444 505.7841985 525.45205444 506.4441985 525.45205444 507.1241985 C526.11205444 507.1241985 526.77205444 507.1241985 527.45205444 507.1241985 C527.26642944 507.7635735 527.08080444 508.4029485 526.88955444 509.0616985 C526.74517944 509.7423235 526.60080444 510.4229485 526.45205444 511.1241985 C526.78205444 511.4541985 527.11205444 511.7841985 527.45205444 512.1241985 C527.63955444 515.0616985 527.63955444 515.0616985 527.45205444 518.1241985 C526.79205444 518.7841985 526.13205444 519.4441985 525.45205444 520.1241985 C526.11205444 520.4541985 526.77205444 520.7841985 527.45205444 521.1241985 C526.79205444 521.1241985 526.13205444 521.1241985 525.45205444 521.1241985 C525.45649566 521.72537998 525.46093689 522.32656147 525.46551269 522.94596058 C525.51029081 529.29058628 525.54014291 535.63516601 525.56191772 541.97991139 C525.57188032 544.33735186 525.58545527 546.69478028 525.60293335 549.05217701 C525.72680301 566.20812484 525.3985948 582.82216758 521.26455444 599.5616985 C520.94418213 600.8740044 520.94418213 600.8740044 520.61733764 602.21282154 C516.83635172 617.03787838 510.51716211 630.61433408 503.45205444 644.1241985 C503.12205444 644.7841985 502.79205444 645.4441985 502.45205444 646.1241985 C501.1353978 647.80407077 499.79942417 649.46885854 498.45205444 651.1241985 C497.70955444 652.0523235 496.96705444 652.9804485 496.20205444 653.9366985 C495.62455444 654.6585735 495.04705444 655.3804485 494.45205444 656.1241985 C494.78205444 656.7841985 495.11205444 657.4441985 495.45205444 658.1241985 C494.72889038 658.49802662 494.00572632 658.87185475 493.26064819 659.257011 C490.02166734 661.41032511 487.89069955 663.98385385 485.51455444 666.9991985 C459.59963714 698.52081502 420.62560157 719.08378449 380.45205444 725.1241985 C377.72037634 725.30526073 375.18778549 725.29169223 372.45205444 725.1241985 C372.12205444 726.1141985 371.79205444 727.1041985 371.45205444 728.1241985 C368.45205444 728.1241985 365.45205444 728.1241985 362.45205444 728.1241985 C360.61694484 728.12781752 358.7818355 728.13156977 356.94672626 728.13537174 C314.67667151 728.2220712 272.40662794 728.2880724 230.13650231 728.32845981 C224.92047852 728.33346178 219.70445491 728.33863916 214.48843139 728.34392506 C213.45015104 728.3449743 212.41187068 728.34602354 211.34212729 728.34710458 C194.58825872 728.36445213 177.83444574 728.39595905 161.08061001 728.43280968 C143.8522679 728.47038427 126.62395466 728.49246888 109.39557326 728.50055248 C98.7892438 728.50600582 88.18307162 728.52314724 77.57679065 728.55586436 C70.27722868 728.57721694 62.97774648 728.58335238 55.67815564 728.57820401 C51.48404786 728.57567406 47.29021236 728.57919308 43.09615463 728.6010204 C22.52053005 728.70279066 2.77836434 727.491558 -17.54794556 724.1241985 C-18.39462087 723.9843744 -19.24129619 723.8445503 -20.11362833 723.7004891 C-35.4777737 721.1117642 -49.73043395 716.25947088 -63.54794556 709.1241985 C-64.19763306 708.78904225 -64.84732056 708.453886 -65.51669556 708.1085735 C-79.3756793 700.85426169 -91.81083901 692.0656684 -103.18075806 681.31560475 C-105.5549767 679.05143497 -105.5549767 679.05143497 -108.35263306 676.96404225 C-109.43931275 676.05331959 -109.43931275 676.05331959 -110.54794556 675.1241985 C-110.54794556 674.4641985 -110.54794556 673.8041985 -110.54794556 673.1241985 C-111.20794556 673.1241985 -111.86794556 673.1241985 -112.54794556 673.1241985 C-123.25323518 663.05757672 -131.32165142 649.78090302 -138.54794556 637.1241985 C-139.08806275 636.185761 -139.62817993 635.2473235 -140.18466431 634.2804485 C-141.91470841 631.22684631 -143.43548467 628.46158115 -144.54794556 625.1241985 C-144.95528931 624.04396412 -145.36263306 622.96372975 -145.78232056 621.850761 C-148.75346405 613.88287419 -151.28790113 605.88993081 -153.29794556 597.6241985 C-153.5952356 596.43624684 -153.5952356 596.43624684 -153.8985315 595.22429615 C-157.17860793 581.19285807 -157.84576123 567.0211318 -157.80864197 552.67618519 C-157.81167118 550.98744802 -157.81556448 549.29871222 -157.82023454 547.6099788 C-157.8304245 543.02005306 -157.82835595 538.43020621 -157.82405394 533.84027427 C-157.82157012 528.8700524 -157.83062139 523.89984872 -157.83809143 518.92963368 C-157.85079566 509.21095177 -157.8526374 499.49229755 -157.85029117 489.77360874 C-157.84850271 481.86613174 -157.85026894 473.9586631 -157.85451561 466.0511871 C-157.8551108 464.92252167 -157.85570599 463.79385624 -157.85631922 462.63098883 C-157.85753107 460.33750245 -157.8587452 458.04401608 -157.85996159 455.75052971 C-157.87082109 434.27427668 -157.86868244 412.79803937 -157.86257675 391.32178546 C-157.8574115 371.71961866 -157.86865552 352.11750163 -157.88767496 332.51534467 C-157.90709734 312.34170452 -157.91530151 292.16808785 -157.91155171 271.99443829 C-157.90964601 260.68708846 -157.91206517 249.37978093 -157.92626625 238.07243878 C-157.9382374 228.44390102 -157.9395213 218.8154316 -157.92747609 209.1868928 C-157.9216268 204.28463695 -157.92037698 199.38250574 -157.93247849 194.48025852 C-158.05548582 140.86178425 -148.53205395 94.22545392 -110.54794556 54.1241985 C-109.67911743 53.19091725 -108.81028931 52.257636 -107.91513306 51.2960735 C-89.30464193 31.70863672 -65.95408211 17.970789 -40.54794556 9.1241985 C-39.82155884 8.87057545 -39.09517212 8.6169524 -38.34677368 8.35564381 C-28.19472742 4.90171071 -18.04201884 3.08874937 -7.42294556 1.7023235 C-3.973135 1.18763402 -3.14824273 0.15345972 0 0 Z M525.45205444 465.1241985 C526.45205444 467.1241985 526.45205444 467.1241985 526.45205444 467.1241985 Z " fill="#122F71" transform="translate(328.5479455590248,143.8758015036583)"/>
<path d="M0 0 C4.64454147 3.78828522 8.06987075 7.70875803 9.72265625 13.5234375 C10.44412182 22.0394144 9.37535082 29.60236569 6.95703125 37.73828125 C6.65037537 38.82229721 6.34371948 39.90631317 6.027771 41.0231781 C5.33121654 43.47945738 4.62707988 45.93359483 3.91674805 48.38592529 C2.59799742 52.93910654 1.31710776 57.50269416 0.03710938 62.06689453 C-2.70350963 71.8278832 -5.47209013 81.58080142 -8.24505615 91.3326416 C-9.29764144 95.03726223 -10.34736797 98.74269058 -11.39715195 102.44810581 C-12.4183157 106.05089306 -13.44142066 109.65312686 -14.46509552 113.25520134 C-14.94889401 114.9585204 -15.43207841 116.66201401 -15.91460419 118.36569405 C-16.58658809 120.73728653 -17.2612262 123.10810893 -17.93652344 125.47875977 C-18.12980728 126.16296494 -18.32309113 126.8471701 -18.52223206 127.55210876 C-19.96249939 132.59287043 -21.5879294 137.56097443 -23.27734375 142.5234375 C-22.60626902 142.52067212 -21.93519428 142.51790674 -21.24378395 142.51505756 C-4.88370179 142.44868453 11.47633748 142.399102 27.83652306 142.36800098 C35.7483238 142.3525594 43.66003445 142.33152197 51.57177734 142.29711914 C58.47099261 142.26713352 65.37014259 142.24784282 72.26942122 142.24117202 C75.9195277 142.2372752 79.56944747 142.22817433 83.21949387 142.20624733 C87.3031503 142.18191651 91.38648608 142.18147336 95.47021484 142.18286133 C96.66855957 142.1720755 97.8669043 142.16128967 99.1015625 142.150177 C111.04905328 142.19399656 120.60671166 144.91464264 129.4765625 153.15234375 C135.84296899 160.02933923 139.17279076 168.7913087 138.99609375 178.15625 C137.25172057 193.25753783 127.24667569 202.16717405 117.015625 212.234375 C114.00963682 215.20762553 111.22216107 218.30756725 108.4921875 221.53515625 C105.72266349 224.64704968 102.73073351 227.53558931 99.76660156 230.45996094 C97.16111999 233.0439835 94.66197571 235.66570484 92.28515625 238.4609375 C88.78622276 242.56691487 84.96433036 246.30924752 81.12963867 250.09692383 C77.75201105 253.44910393 74.58024306 256.90549398 71.49609375 260.53125 C68.52693778 263.86664547 65.30447282 266.94863077 62.12890625 270.0859375 C60.0681628 272.17344385 58.12749999 274.29512973 56.22265625 276.5234375 C52.74052649 280.59687231 48.94710199 284.31378868 45.13671875 288.078125 C42.43514331 290.81467229 39.9318689 293.67323116 37.43359375 296.59375 C35.60465762 298.65652271 33.68685167 300.5893447 31.72265625 302.5234375 C29.16396366 305.04299139 26.74095014 307.60462532 24.41015625 310.3359375 C21.50015212 313.72539311 18.40106449 316.88795896 15.22265625 320.0234375 C11.46049003 323.73485793 7.89455789 327.5420217 4.46484375 331.5625 C1.75099503 334.61710103 -1.18598127 337.44005293 -4.09375 340.30859375 C-6.05709046 342.30003211 -7.89814044 344.33646328 -9.71484375 346.4609375 C-13.22203815 350.55402053 -17.03459533 354.29568454 -20.8671875 358.08203125 C-23.54588907 360.79546477 -26.02342493 363.63120773 -28.5 366.52734375 C-31.22412499 369.58674566 -34.16424048 372.41968665 -37.08203125 375.29296875 C-39.1215214 377.36511977 -41.02066099 379.49595219 -42.90234375 381.7109375 C-49.46295943 389.26240131 -56.03765691 394.50012641 -66.234375 395.94140625 C-73.57568918 396.29009511 -79.31260314 394.89332768 -85.27734375 390.5234375 C-91.37927168 384.70532017 -94.06541685 377.22231382 -94.44042969 368.9074707 C-94.40849688 364.26786351 -93.37453611 360.13361364 -92.11328125 355.69140625 C-91.88748383 354.86706589 -91.6616864 354.04272552 -91.42904663 353.19340515 C-90.72356263 350.63329777 -90.0025295 348.07802697 -89.27734375 345.5234375 C-89.06033813 344.75147034 -88.84333252 343.97950317 -88.61975098 343.18414307 C-87.08286364 337.72421046 -85.49992784 332.27838025 -83.90234375 326.8359375 C-83.65355469 325.9853476 -83.40476562 325.13475769 -83.1484375 324.25839233 C-78.09932997 307.01883788 -72.76305891 289.87105502 -67.35400391 272.74145508 C-67.04612946 271.7648291 -66.738255 270.78820312 -66.42105103 269.78198242 C-65.8528697 267.98103097 -65.28304832 266.1805955 -64.71102905 264.38085938 C-62.42392943 257.13522357 -60.34060099 249.83534539 -58.27734375 242.5234375 C-58.93718923 242.52712467 -59.5970347 242.53081184 -60.2768755 242.53461075 C-76.37024944 242.6231447 -92.46353807 242.68923571 -108.55709553 242.73068619 C-116.33999214 242.75126676 -124.12272567 242.77930053 -131.90551758 242.82519531 C-138.69304161 242.86520179 -145.48044747 242.89090302 -152.26808614 242.89979148 C-155.85848739 242.90498303 -159.44855075 242.91708939 -163.03884315 242.94635773 C-167.0577015 242.97885068 -171.07598124 242.97938813 -175.0949707 242.97753906 C-176.27101868 242.99192017 -177.44706665 243.00630127 -178.65875244 243.02111816 C-190.27097056 242.96354032 -198.73933128 239.98934955 -207.11328125 231.89453125 C-214.81427818 223.45679635 -216.9842201 214.97757199 -216.63671875 203.625 C-215.8387116 191.46944037 -208.5148175 183.65557962 -200.27734375 175.5234375 C-199.3055002 174.55127022 -198.33414035 173.57861915 -197.36328125 172.60546875 C-195.58073248 170.82020176 -193.78658876 169.05086055 -191.98046875 167.2890625 C-189.88804719 165.14826125 -187.9299539 162.99206009 -185.98046875 160.7265625 C-181.45541568 155.5034567 -176.52114814 150.71815773 -171.59375 145.87890625 C-168.20852665 142.53041227 -164.91289117 139.16683081 -161.80859375 135.5546875 C-157.15788176 130.14923139 -152.03044879 125.2303495 -146.94921875 120.234375 C-143.51913403 116.83929115 -140.15640754 113.44970211 -137.02734375 109.7734375 C-131.26862649 103.07262594 -124.80903152 97.00196021 -118.52929688 90.79589844 C-112.85586504 85.18309382 -107.23678561 79.6122441 -102.06152344 73.53027344 C-97.60835896 68.52137743 -92.7109572 63.91063754 -87.94042969 59.20703125 C-86.5325206 57.81711159 -85.12753977 56.42422773 -83.72265625 55.03125 C-82.89266113 54.21285645 -82.06266602 53.39446289 -81.20751953 52.55126953 C-79.22906955 50.67083221 -79.22906955 50.67083221 -78.27734375 48.5234375 C-77.61734375 48.5234375 -76.95734375 48.5234375 -76.27734375 48.5234375 C-76.05006592 47.96946289 -75.82278809 47.41548828 -75.58862305 46.84472656 C-73.89472251 43.84610316 -71.75511468 41.79549289 -69.296875 39.3828125 C-68.80579758 38.89693665 -68.31472015 38.41106079 -67.8087616 37.91046143 C-66.24048727 36.35993447 -64.66570893 34.81624594 -63.08984375 33.2734375 C-54.19223265 24.54591401 -54.19223265 24.54591401 -45.82250977 15.31542969 C-43.27280576 12.35843373 -40.57461933 9.55854637 -37.83984375 6.7734375 C-37.31841797 6.22300781 -36.79699219 5.67257812 -36.25976562 5.10546875 C-26.39935292 -4.91107716 -12.31691422 -7.9859238 0 0 Z " fill="#FDFDFE" transform="translate(549.27734375,300.4765625)"/>
<path d="M0 0 C1 2 1 2 0.54125977 3.94042969 C0.12058228 5.16874512 0.12058228 5.16874512 -0.30859375 6.421875 C-0.63601563 7.40212646 -0.9634375 8.38237793 -1.30078125 9.39233398 C-1.67589844 10.50036377 -2.05101562 11.60839355 -2.4375 12.75 C-7.43790914 27.88561342 -11.97714379 43.15340867 -16.5 58.4375 C-16.86237762 59.65828247 -17.22475525 60.87906494 -17.59811401 62.13684082 C-18.64105498 65.65162472 -19.68059678 69.16739306 -20.71875 72.68359375 C-21.03505875 73.75026779 -21.35136749 74.81694183 -21.67726135 75.91593933 C-21.96874557 76.907173 -22.2602298 77.89840668 -22.56054688 78.91967773 C-22.8154187 79.78342514 -23.07029053 80.64717255 -23.33288574 81.53709412 C-25.69250466 90.24852434 -26.84553656 100.02377572 -23 108.4375 C-19.06772204 115.17221831 -13.8802264 119.67803098 -6.53204346 122.35540199 C-1.26134674 123.69719595 4.16951333 123.43852301 9.57617188 123.43237305 C10.93694949 123.44140264 12.297719 123.45173278 13.65847778 123.46325684 C17.33146245 123.49071274 21.00429231 123.5000957 24.67736626 123.50611091 C28.52378283 123.51552448 32.37008512 123.54173017 36.21643066 123.56611633 C43.49058114 123.60970327 50.76470933 123.63829806 58.03895044 123.66143972 C66.32441318 123.68853337 74.60976049 123.73244222 82.89514065 123.77772844 C99.93003424 123.87046283 116.9649528 123.94219472 134 124 C133.04910439 125.11812749 132.09695694 126.23519044 131.14428711 127.35180664 C130.6141954 127.97398575 130.0841037 128.59616486 129.53794861 129.23719788 C127.64240844 131.4098727 125.63105471 133.4296735 123.5625 135.4375 C120.87913684 138.08538067 118.30570868 140.74439152 115.875 143.625 C111.72543377 148.47590137 107.14803493 152.90350173 102.59326172 157.36962891 C99.47699258 160.44368757 96.47682194 163.55284274 93.625 166.875 C88.7423657 172.53753764 83.35264544 177.69242005 78.02734375 182.93359375 C73.7347854 187.18481125 69.62793015 191.50050645 65.69335938 196.08398438 C62.78343164 199.37653236 59.63610779 202.42488881 56.5 205.5 C52.13252485 209.82091697 47.8936608 214.14700523 43.93359375 218.84765625 C40.49457036 222.67574088 36.78076477 226.2377752 33.12402344 229.85644531 C29.46221182 233.49472092 25.97311583 237.20304452 22.63671875 241.14453125 C19.96705865 244.17099557 17.05539322 246.95209943 14.18359375 249.78515625 C12.22025329 251.77659461 10.37920331 253.81302578 8.5625 255.9375 C5.02707794 260.06627961 1.17759773 263.83828761 -2.6875 267.65625 C-5.31424464 270.31849119 -7.68431877 273.06680377 -10 276 C-11.33042514 272.00872457 -10.32702874 270.30742274 -8.96484375 266.34375 C-8.73485687 265.66510391 -8.50487 264.98645782 -8.26791382 264.2872467 C-7.76422766 262.80379789 -7.25649539 261.32171831 -6.74526978 259.84085083 C-5.64643517 256.65651791 -4.56777377 253.46547811 -3.48826599 250.27455139 C-2.91071248 248.56748071 -2.33220828 246.86073142 -1.75282288 245.15428162 C1.48552061 235.60500761 4.62657478 226.02432826 7.75021362 216.43701172 C8.67772204 213.59248748 9.60939179 210.74934851 10.54125977 207.90625 C11.11501091 206.14722177 11.68850975 204.38811122 12.26171875 202.62890625 C12.52473785 201.82832291 12.78775696 201.02773956 13.05874634 200.20289612 C16.71554972 188.93172346 17.4421755 179.84668889 12 169 C7.81463274 161.49520353 2.02790251 156.82463236 -6 154 C-9.5761983 153.14576434 -12.90177544 152.86643104 -16.57453918 152.84178162 C-17.68366669 152.8319928 -18.79279419 152.82220398 -19.93553162 152.81211853 C-21.74598717 152.80348534 -21.74598717 152.80348534 -23.59301758 152.79467773 C-24.87146545 152.78477814 -26.14991333 152.77487854 -27.46710205 152.76467896 C-30.9646085 152.73770488 -34.46212833 152.71665487 -37.9596808 152.69667697 C-41.61789515 152.67477102 -45.27606858 152.64740493 -48.93424988 152.62062073 C-55.85788255 152.57075606 -62.78153802 152.5257942 -69.70521516 152.48259836 C-77.58912587 152.4331727 -85.47299552 152.37827437 -93.35686648 152.32291877 C-109.57120643 152.20919432 -125.78558408 152.10233461 -142 152 C-140.15234429 147.97246535 -137.4725398 145.28673997 -134.3125 142.25 C-130.93871596 138.94790327 -127.61098065 135.67294804 -124.5625 132.0625 C-120.91441827 127.76905738 -116.90792489 123.8527289 -112.88110352 119.91821289 C-109.99018699 117.07317693 -107.24141383 114.1676817 -104.59375 111.09375 C-100.30654835 106.13237046 -95.63915147 101.58859301 -90.9609375 97 C-87.01978798 93.10450086 -83.29958979 89.1044132 -79.68359375 84.90625 C-77.0882582 81.96767981 -74.30294582 79.23869491 -71.5 76.5 C-67.44295803 72.49344872 -63.560008 68.4411067 -59.87109375 64.08984375 C-56.86125037 60.72811889 -53.62023807 57.60032425 -50.41088867 54.43041992 C-46.98857697 51.03395731 -43.76700963 47.53211811 -40.640625 43.859375 C-38.21154675 41.10641965 -35.57986404 38.57096018 -32.96484375 35.99609375 C-31.07769256 34.07892823 -29.31314625 32.10424678 -27.5625 30.0625 C-24.99334729 27.07198284 -22.30682744 24.26883316 -19.5 21.5 C-16.09898666 18.13926939 -12.88788215 14.68870786 -9.7734375 11.0625 C-7.72897617 8.68480048 -5.64807236 6.34169529 -3.5625 4 C-2.88316406 3.236875 -2.20382812 2.47375 -1.50390625 1.6875 C-1.00761719 1.130625 -0.51132812 0.57375 0 0 Z " fill="#112C69" transform="translate(513,356)"/>
<path d="M0 0 C0.66 0.33 1.32 0.66 2 1 C2 11.23 2 21.46 2 32 C2.66 32 3.32 32 4 32 C3.67 32.66 3.34 33.32 3 34 C2.9086334 35.97106545 2.88248032 37.94527916 2.88647461 39.91845703 C2.88655014 41.15959259 2.88662567 42.40072815 2.88670349 43.67947388 C2.8918105 45.03892049 2.8970265 46.39836669 2.90234375 47.7578125 C2.90420858 49.14500884 2.90563218 50.53220584 2.90663147 51.91940308 C2.91045152 55.57234512 2.92027745 59.22524748 2.93133545 62.87817383 C2.94156056 66.60497501 2.94613145 70.33178259 2.95117188 74.05859375 C2.96190017 81.37241394 2.97897046 88.68620141 3 96 C3.33 96 3.66 96 4 96 C4 97.98 4 99.96 4 102 C3.67 102 3.34 102 3 102 C2.67 116.52 2.34 131.04 2 146 C2.66 146 3.32 146 4 146 C4 147.65 4 149.3 4 151 C3.67 151 3.34 151 3 151 C2.67 156.61 2.34 162.22 2 168 C2.66 168 3.32 168 4 168 C4 169.98 4 171.96 4 174 C3.67 174 3.34 174 3 174 C2.9768795 187.67302562 2.95908641 201.34604664 2.94818783 215.01908779 C2.94295836 221.36730576 2.93585956 227.7155104 2.92456055 234.0637207 C2.91373394 240.18448582 2.90772365 246.30523809 2.90512276 252.42601204 C2.9032681 254.76690943 2.89964671 257.10780609 2.89426994 259.44869804 C2.88706252 262.71508202 2.88600893 265.98141215 2.88647461 269.24780273 C2.88287933 270.226035 2.87928406 271.20426727 2.87557983 272.21214294 C2.8769545 273.09700378 2.87832916 273.98186462 2.87974548 274.89353943 C2.87882369 275.66692374 2.8779019 276.44030806 2.87695217 277.23712826 C2.8081501 279.02686827 2.8081501 279.02686827 4 280 C4.04165763 281.99956611 4.04165763 284.00043389 4 286 C4 286.33 4 286.66 4 287 C4 292 4 297 4 302 C3.67 302 3.34 302 3 302 C3 304.97 3 307.94 3 311 C3.33 311 3.66 311 4 311 C4 313.97 4 316.94 4 320 C3.67 320 3.34 320 3 320 C2.67 325.28 2.34 330.56 2 336 C2.66 336 3.32 336 4 336 C3.34 338.64 2.68 341.28 2 344 C2.66 344 3.32 344 4 344 C4.125 346.875 4.125 346.875 4 350 C3.34 350.66 2.68 351.32 2 352 C2.66 352.33 3.32 352.66 4 353 C3.34 353 2.68 353 2 353 C2 353.66 2 354.32 2 355 C2.66 355 3.32 355 4 355 C3.814375 355.639375 3.62875 356.27875 3.4375 356.9375 C3.293125 357.618125 3.14875 358.29875 3 359 C3.33 359.33 3.66 359.66 4 360 C4.1875 362.9375 4.1875 362.9375 4 366 C3.34 366.66 2.68 367.32 2 368 C2.66 368.33 3.32 368.66 4 369 C3.34 369 2.68 369 2 369 C2.00444122 369.60118149 2.00888245 370.20236298 2.01345825 370.82176208 C2.05823637 377.16638778 2.08808847 383.51096752 2.10986328 389.85571289 C2.11982588 392.21315336 2.13340083 394.57058179 2.15087891 396.92797852 C2.27474857 414.08392635 1.94654036 430.69796908 -2.1875 447.4375 C-2.50787231 448.74980591 -2.50787231 448.74980591 -2.8347168 450.08862305 C-6.61570272 464.91367989 -12.93489233 478.49013559 -20 492 C-20.33 492.66 -20.66 493.32 -21 494 C-22.31665664 495.67987227 -23.65263027 497.34466005 -25 499 C-25.7425 499.928125 -26.485 500.85625 -27.25 501.8125 C-27.8275 502.534375 -28.405 503.25625 -29 504 C-28.67 504.66 -28.34 505.32 -28 506 C-29.08474609 506.56074219 -29.08474609 506.56074219 -30.19140625 507.1328125 C-33.43038711 509.28612662 -35.5613549 511.85965536 -37.9375 514.875 C-63.8524173 546.39661653 -102.82645287 566.95958599 -143 573 C-145.7316781 573.18106224 -148.26426895 573.16749374 -151 573 C-151.33 573.99 -151.66 574.98 -152 576 C-155 576 -158 576 -161 576 C-162.8351096 576.00361903 -164.67021894 576.00737128 -166.50532818 576.01117325 C-208.77538294 576.09787271 -251.0454265 576.16387391 -293.31555213 576.20426132 C-298.53157592 576.20926328 -303.74759953 576.21444066 -308.96362305 576.21972656 C-310.0019034 576.2207758 -311.04018376 576.22182505 -312.10992716 576.22290608 C-328.86379572 576.24025364 -345.6176087 576.27176056 -362.37144443 576.30861118 C-379.59978654 576.34618577 -396.82809979 576.36827038 -414.05648118 576.37635398 C-424.66281064 576.38180733 -435.26898282 576.39894874 -445.87526379 576.43166587 C-453.17482576 576.45301844 -460.47430796 576.45915388 -467.7738988 576.45400551 C-471.96800658 576.45147557 -476.16184208 576.45499458 -480.35589981 576.4768219 C-500.93152439 576.57859217 -520.6736901 575.3673595 -541 572 C-541.84667531 571.8601759 -542.69335063 571.7203518 -543.56568277 571.57629061 C-558.92982814 568.9875657 -573.18248839 564.13527239 -587 557 C-587.6496875 556.66484375 -588.299375 556.3296875 -588.96875 555.984375 C-602.82773374 548.7300632 -615.26289345 539.9414699 -626.6328125 529.19140625 C-629.00703114 526.92723648 -629.00703114 526.92723648 -631.8046875 524.83984375 C-632.52914062 524.23269531 -633.25359375 523.62554688 -634 523 C-634 522.34 -634 521.68 -634 521 C-634.66 521 -635.32 521 -636 521 C-644.44389953 513.05985584 -654.41556698 500.74541314 -659 490 C-658.67 489.01 -658.34 488.02 -658 487 C-657.3709375 487.96679688 -656.741875 488.93359375 -656.09375 489.9296875 C-630.12828772 529.55419776 -592.74304387 558.58207002 -545.75 568.375 C-542.84029612 568.96925698 -539.93334184 569.53564622 -537 570 C-535.94653853 570.16944941 -534.89307707 570.33889881 -533.80769253 570.51348305 C-527.15229044 571.33009786 -520.4362236 571.15202654 -513.74195862 571.15390015 C-512.18132145 571.15791985 -510.62068532 571.16235892 -509.06005043 571.1671797 C-504.78239168 571.17909515 -500.50474418 571.18478197 -496.22707212 571.18936086 C-491.60841539 571.1953364 -486.98977198 571.20694159 -482.37112427 571.21765137 C-471.21962619 571.24213512 -460.06812372 571.25679885 -448.91660705 571.26971143 C-445.76279772 571.27342702 -442.60898883 571.27739998 -439.45517993 571.2814641 C-419.83997745 571.30670991 -400.2247742 571.32874731 -380.60955906 571.34119225 C-376.06937724 571.34412161 -371.52919544 571.34708331 -366.98901367 571.35009766 C-365.86067122 571.35084371 -364.73232876 571.35158976 -363.56979411 571.35235842 C-345.32244001 571.36499141 -327.0751838 571.39818877 -308.82787538 571.43989949 C-290.06138484 571.48244243 -271.29494422 571.5059017 -252.52840561 571.51111281 C-242.00499553 571.51451349 -231.48173828 571.52610872 -220.95837593 571.55921555 C-211.98911562 571.5873879 -203.0200395 571.59814084 -194.0507384 571.58702008 C-189.48451256 571.58187655 -184.91867133 571.58443498 -180.35250282 571.60948563 C-146.80763673 571.78335475 -116.83738988 567.21136037 -87 551 C-86.09193604 550.51877686 -86.09193604 550.51877686 -85.16552734 550.02783203 C-72.03045335 543.05104199 -60.79036498 534.20524152 -50 524 C-49.14019531 523.20464844 -48.28039062 522.40929687 -47.39453125 521.58984375 C-23.54094627 498.7688815 -8.94572371 469.23377128 -3 437 C-2.82637739 436.09196934 -2.65275478 435.18393867 -2.47387087 434.24839193 C-0.84980007 424.921998 -0.70921701 415.76753675 -0.7215271 406.3400116 C-0.71651557 404.57987393 -0.71063729 402.81973856 -0.70397437 401.05960637 C-0.68826403 396.25469866 -0.68474866 391.44984957 -0.68332577 386.64491928 C-0.67961597 381.45149013 -0.66445268 376.25809255 -0.65071106 371.06468201 C-0.62848388 362.07727073 -0.61344333 353.08987075 -0.60334396 344.10243797 C-0.58873167 331.10827099 -0.56318771 318.11414338 -0.53501268 305.11999957 C-0.48959099 284.03565794 -0.45295709 262.95131064 -0.421875 241.86694336 C-0.39167051 221.39069623 -0.35731151 200.914463 -0.31738281 180.43823242 C-0.31492126 179.1751617 -0.31245972 177.91209098 -0.30992357 176.61074539 C-0.2975486 170.27401729 -0.28509214 163.93728936 -0.27259517 157.6005615 C-0.16909661 105.0670604 -0.07987054 52.53354197 0 0 Z M2 313 C3 315 3 315 3 315 Z " fill="#0B183D" transform="translate(852,296)"/>
<path d="M0 0 C1.14789456 0.00037972 2.29578912 0.00075944 3.47846836 0.00115067 C4.79718293 -0.00084038 6.11589751 -0.00283143 7.47457314 -0.00488281 C8.95726585 -0.00202921 10.43995839 0.0009164 11.92265075 0.00394398 C13.48268853 0.00350841 15.04272623 0.00263378 16.60276353 0.00135481 C20.91030834 -0.00089304 25.21782852 0.00313508 29.52537018 0.00813287 C34.16275108 0.01243305 38.80013048 0.01099126 43.43751281 0.0102306 C51.47895969 0.00970509 59.52039849 0.01285472 67.56184334 0.01846844 C79.18856377 0.02657978 90.81528028 0.02919828 102.44200324 0.03045643 C121.30351016 0.03264753 140.16501276 0.03930918 159.02651733 0.04875904 C177.35366555 0.05793167 195.6808126 0.06501323 214.00796264 0.06926686 C215.13678425 0.06952958 216.26560585 0.0697923 217.42863417 0.07006299 C223.09134247 0.07136798 228.75405077 0.0726317 234.41675907 0.07387489 C281.42852718 0.0842493 328.44029059 0.10186918 375.45205444 0.1241985 C375.45205444 0.4541985 375.45205444 0.7841985 375.45205444 1.1241985 C376.35576782 1.30426441 376.35576782 1.30426441 377.27773803 1.48796803 C404.3183579 6.9433066 431.1448468 15.20148925 453.45205444 32.1241985 C454.48717163 32.87958912 455.52228882 33.63497975 456.58877319 34.413261 C489.67241889 58.86318205 514.42213231 94.68151627 523.03017944 135.2023235 C523.70209622 139.85596936 523.7056824 144.43677815 523.45205444 149.1241985 C521.11813653 145.62332163 520.74561493 142.55563033 520.13955444 138.4991985 C514.62827632 105.60637997 497.98020593 78.28089106 475.45205444 54.1241985 C474.40598022 52.99691334 474.40598022 52.99691334 473.33877319 51.84685475 C444.15614878 21.49052332 399.61666478 3.97115403 357.89339966 2.8505531 C349.61520885 2.69794014 341.33531464 2.72320601 333.05612606 2.74668354 C328.72066575 2.75563722 324.38523195 2.74705026 320.04977173 2.74082142 C311.58525811 2.73139557 303.12083054 2.73787837 294.65632337 2.75008436 C284.77389518 2.76379695 274.8914868 2.76205838 265.0090515 2.75995103 C247.36177976 2.75677021 229.71454854 2.7683765 212.06728882 2.78801686 C194.99045335 2.80701705 177.91366535 2.81410324 160.83682007 2.80852467 C142.18708379 2.80245019 123.53736831 2.80267442 104.88763374 2.8140105 C102.89439784 2.81521764 100.90116193 2.81642362 98.90792602 2.81762844 C97.92752424 2.81823198 96.94712246 2.81883552 95.93701154 2.81945735 C89.06822378 2.8233169 82.19944383 2.82295053 75.33065552 2.8210426 C66.94609304 2.81890804 58.56157187 2.82423928 50.17702097 2.83865615 C45.90904358 2.84583932 41.64112596 2.85002996 37.37314361 2.84541279 C6.11801572 2.49441956 6.11801572 2.49441956 -24.61044556 7.4991985 C-25.91344605 7.82790943 -25.91344605 7.82790943 -27.24276978 8.163261 C-37.81542318 10.88098397 -47.71424707 14.37963777 -57.54794556 19.1241985 C-59.16829712 19.87830006 -59.16829712 19.87830006 -60.82138306 20.647636 C-74.5995891 27.24259754 -86.67035376 35.70198576 -98.07968384 45.82781178 C-99.45952366 47.04612729 -100.86052121 48.24035995 -102.26278931 49.43279225 C-108.45703278 54.7871383 -113.48437732 60.71034539 -118.54794556 67.1241985 C-120.52606448 69.47754823 -122.53445333 71.80093824 -124.54794556 74.1241985 C-124.87794556 73.4641985 -125.20794556 72.8041985 -125.54794556 72.1241985 C-104.47591184 42.35412629 -74.87223213 21.07614982 -40.54794556 9.1241985 C-39.82155884 8.87057545 -39.09517212 8.6169524 -38.34677368 8.35564381 C-28.19472742 4.90171071 -18.04201884 3.08874937 -7.42294556 1.7023235 C-3.973135 1.18763402 -3.14824273 0.15345972 0 0 Z " fill="#0C1C3D" transform="translate(328.5479455590248,143.8758015036583)"/>
<path d="M0 0 C0.33 0 0.66 0 1 0 C0.61049999 4.75190008 0.12060032 9.4395663 -0.71023244 14.13502032 C-2.64661662 25.11442042 -3.42966202 35.65763291 -3.3742218 46.79136658 C-3.37697147 48.49293104 -3.38103123 50.19449379 -3.38626546 51.89605242 C-3.39672869 56.51202951 -3.3888048 61.12780946 -3.37751496 65.74377763 C-3.36859556 70.74524425 -3.37713864 75.74668719 -3.38337708 80.74815369 C-3.39282261 90.5227238 -3.38630246 100.29721963 -3.37411413 110.07178419 C-3.36042942 121.47526046 -3.36213771 132.87871944 -3.36424746 144.28220183 C-3.3674312 164.64151886 -3.35580541 185.0008008 -3.33618164 205.36010742 C-3.3171827 225.07658964 -3.31009424 244.79303076 -3.31567383 264.50952148 C-3.32174397 286.02281714 -3.32153177 307.53609477 -3.310188 329.04938895 C-3.30898082 331.34735938 -3.30777483 333.64532981 -3.30657005 335.94330025 C-3.30596651 337.07369467 -3.30536298 338.20408909 -3.30474115 339.36873789 C-3.30087626 347.30096689 -3.30125007 355.23318914 -3.3031559 363.16541862 C-3.30528723 372.8445201 -3.29998326 382.52358576 -3.28554235 392.20267718 C-3.27834338 397.1327765 -3.27418246 402.0628239 -3.27878571 406.99292755 C-3.30908376 444.12275981 -0.8311292 477.21443663 16 511 C12.35092371 509.78364124 12.1171341 508.92757323 10.375 505.625 C9.94960937 504.83351563 9.52421875 504.04203125 9.0859375 503.2265625 C8 501 8 501 7 498 C6.59265625 496.91976563 6.1853125 495.83953125 5.765625 494.7265625 C2.79448151 486.75867569 0.26004443 478.76573232 -1.75 470.5 C-1.94819336 469.70803223 -2.14638672 468.91606445 -2.35058594 468.10009766 C-5.63066237 454.06865957 -6.29781567 439.8969333 -6.26069641 425.55198669 C-6.26372562 423.86324952 -6.26761892 422.17451373 -6.27228898 420.4857803 C-6.28247894 415.89585456 -6.28041039 411.30600772 -6.27610838 406.71607578 C-6.27362456 401.74585391 -6.28267584 396.77565023 -6.29014587 391.80543518 C-6.3028501 382.08675327 -6.30469184 372.36809905 -6.30234561 362.64941024 C-6.30055715 354.74193324 -6.30232338 346.8344646 -6.30657005 338.9269886 C-6.30716524 337.79832317 -6.30776043 336.66965774 -6.30837366 335.50679033 C-6.30958551 333.21330396 -6.31079964 330.91981759 -6.31201603 328.62633122 C-6.32287553 307.15007818 -6.32073688 285.67384087 -6.31463119 264.19758696 C-6.30946594 244.59542017 -6.32070996 224.99330313 -6.33972941 205.39114618 C-6.35915178 185.21750602 -6.36735595 165.04388935 -6.36360615 144.87023979 C-6.36170045 133.56288996 -6.36411961 122.25558244 -6.37832069 110.94824028 C-6.39029184 101.31970252 -6.39157574 91.6912331 -6.37953053 82.0626943 C-6.37368124 77.16043846 -6.37243142 72.25830724 -6.38453293 67.35606003 C-6.49866931 17.56041321 -6.49866931 17.56041321 0 0 Z " fill="#081638" transform="translate(177,271)"/>
<path d="M0 0 C2.789586 2.53208576 4.6562348 5.40229633 6.6875 8.5625 C31.21549614 45.71126506 69.57754512 72.27405106 113.25 81.375 C116.15970388 81.96925698 119.06665816 82.53564622 122 83 C123.06251984 83.16936034 124.12503967 83.33872068 125.21975708 83.51321316 C131.72487037 84.31170996 138.27555352 84.15402957 144.81884766 84.15821838 C146.33130555 84.16278897 147.8437622 84.16778972 149.35621738 84.17318195 C153.4997143 84.18671588 157.64320304 84.19416761 161.78671622 84.20060861 C166.25970141 84.20863348 170.7326697 84.22232404 175.2056427 84.23532104 C182.95120717 84.25705424 190.69677337 84.27521024 198.44235229 84.29092598 C209.64111366 84.31365339 220.8398563 84.34179222 232.03860176 84.37124526 C250.20850618 84.41888598 268.37841826 84.46215969 286.54833984 84.50268555 C304.19710893 84.54205839 321.84587121 84.5834889 339.49462891 84.62768555 C340.5827805 84.63040982 341.6709321 84.63313409 342.79205799 84.63594092 C348.25107901 84.64962069 353.71009992 84.66334091 359.16912079 84.67708123 C404.44606633 84.79099071 449.72302659 84.89781227 495 85 C495 85.33 495 85.66 495 86 C449.02013995 86.21948058 403.04023049 86.41731642 357.06015619 86.58644359 C351.62205342 86.60646481 346.18395132 86.62666377 340.74584961 86.64697266 C339.66329897 86.65101251 338.58074834 86.65505237 337.46539313 86.65921465 C319.97598374 86.72490462 302.48666854 86.80496761 284.9973458 86.89041659 C267.02895263 86.97788347 249.06054505 87.04973226 231.09203106 87.10732102 C220.01969649 87.14329274 208.94754938 87.19119932 197.87533826 87.25476131 C190.26515644 87.29727752 182.65501168 87.32451538 175.04472768 87.3401753 C170.66514292 87.34962492 166.28584427 87.36539005 161.90637589 87.39944649 C130.67721387 87.63431095 100.08061101 84.89271239 72 70 C71.03634521 69.49944092 71.03634521 69.49944092 70.05322266 68.98876953 C56.18356739 61.73434121 43.74438936 52.94835568 32.3671875 42.19140625 C29.99296886 39.92723648 29.99296886 39.92723648 27.1953125 37.83984375 C26.10863281 36.92912109 26.10863281 36.92912109 25 36 C25 35.34 25 34.68 25 34 C24.34 34 23.68 34 23 34 C14.27643637 25.79687625 5.1552602 13.85538529 0 3 C0 2.01 0 1.02 0 0 Z " fill="#0F2862" transform="translate(193,783)"/>
<path d="M0 0 C0 0.33 0 0.66 0 1 C0.60247559 1.12004395 1.20495117 1.24008789 1.82568359 1.36376953 C28.86630346 6.8191081 55.69279236 15.07729076 78 32 C79.03511719 32.75539062 80.07023438 33.51078125 81.13671875 34.2890625 C114.22036445 58.73898356 138.97007787 94.55731778 147.578125 135.078125 C148.25004178 139.73177087 148.25362795 144.31257965 148 149 C145.66608209 145.49912313 145.29356049 142.43143184 144.6875 138.375 C139.17622188 105.48218147 122.52815149 78.15669256 100 54 C99.30261719 53.24847656 98.60523438 52.49695313 97.88671875 51.72265625 C71.7101124 24.49324306 33.683304 8.3165884 -3.41137695 3.98730469 C-4.25788818 3.88450195 -5.10439941 3.78169922 -5.9765625 3.67578125 C-6.73018066 3.59239502 -7.48379883 3.50900879 -8.26025391 3.4230957 C-8.83437012 3.28347412 -9.40848633 3.14385254 -10 3 C-10.33 2.34 -10.66 1.68 -11 1 C-7.32589215 -0.17571451 -3.83070817 -0.07366746 0 0 Z " fill="#071231" transform="translate(704,144)"/>
<path d="M0 0 C0 3 0 3 -1.53125 4.82421875 C-2.50578125 5.74654297 -2.50578125 5.74654297 -3.5 6.6875 C-4.1496875 7.31011719 -4.799375 7.93273437 -5.46875 8.57421875 C-5.9740625 9.04472656 -6.479375 9.51523437 -7 10 C-6.05799807 10.00358253 -6.05799807 10.00358253 -5.09696579 10.00723743 C10.22914957 10.06653936 25.55509134 10.14218557 40.88103104 10.23571491 C48.29274314 10.28055776 55.70440843 10.31999848 63.11621094 10.34643555 C69.58118066 10.36950939 76.04600078 10.40301082 82.51085162 10.44870156 C85.92957144 10.47250824 89.34814426 10.49131873 92.76694489 10.49761391 C96.5964787 10.50729527 100.42548114 10.5354043 104.25488281 10.56762695 C105.37123108 10.56619186 106.48757935 10.56475677 107.63775635 10.5632782 C120.60859973 10.71672461 130.94466468 13.46090873 140.5625 22.375 C141.036875 22.91125 141.51125 23.4475 142 24 C141.67 24.66 141.34 25.32 141 26 C140.43152344 25.45730469 139.86304688 24.91460938 139.27734375 24.35546875 C131.5650514 17.20968869 125.09015171 13.91335672 114.42546082 13.84178162 C113.31633331 13.8319928 112.20720581 13.82220398 111.06446838 13.81211853 C109.25401283 13.80348534 109.25401283 13.80348534 107.40698242 13.79467773 C106.12853455 13.78477814 104.85008667 13.77487854 103.53289795 13.76467896 C100.0353915 13.73770488 96.53787167 13.71665487 93.0403192 13.69667697 C89.38210485 13.67477102 85.72393142 13.64740493 82.06575012 13.62062073 C75.14211745 13.57075606 68.21846198 13.5257942 61.29478484 13.48259836 C53.41087413 13.4331727 45.52700448 13.37827437 37.64313352 13.32291877 C21.42879357 13.20919432 5.21441592 13.10233461 -11 13 C-9.30413874 9.36696916 -7.26199512 7.05450954 -4.375 4.25 C-3.55773437 3.45078125 -2.74046875 2.6515625 -1.8984375 1.828125 C-0.95871094 0.92320312 -0.95871094 0.92320312 0 0 Z " fill="#020231" transform="translate(382,495)"/>
<path d="M0 0 C46.53 0.33 93.06 0.66 141 1 C134.25 8.875 134.25 8.875 131.125 11.4375 C130.23167969 12.17806641 130.23167969 12.17806641 129.3203125 12.93359375 C128.66675781 13.46146484 128.66675781 13.46146484 128 14 C129.15991427 10.9842229 130.81237369 9.07636355 133.0859375 6.8515625 C133.90263916 6.048396 133.90263916 6.048396 134.73583984 5.22900391 C135.1530127 4.82343262 135.57018555 4.41786133 136 4 C135.00331834 3.99503478 135.00331834 3.99503478 133.98650169 3.98996925 C117.81131907 3.90871319 101.63623814 3.8166122 85.46118736 3.71247292 C77.63902106 3.66237266 69.8168651 3.61592946 61.99462891 3.578125 C55.17596758 3.54516145 48.35738714 3.50530617 41.53881514 3.45720994 C37.92916385 3.43198827 34.3195659 3.41019427 30.70985031 3.39665604 C26.67803088 3.38140547 22.64646802 3.35076748 18.61474609 3.31884766 C17.42072174 3.31668747 16.22669739 3.31452728 14.99649048 3.31230164 C4.98907278 3.21093257 4.98907278 3.21093257 0 1 C0 0.67 0 0.34 0 0 Z " fill="#000343" transform="translate(506,479)"/>
<path d="M0 0 C2.789586 2.53208576 4.6562348 5.40229633 6.6875 8.5625 C31.11196193 45.55445779 69.41151238 72.25684603 112.9375 81.3125 C120.25302897 82.77183296 127.60877158 83.99150205 135 85 C135 85.33 135 85.66 135 86 C113.6807344 87.79740881 90.70780448 79.66058756 72 70 C71.3503125 69.66484375 70.700625 69.3296875 70.03125 68.984375 C56.17226626 61.7300632 43.73710655 52.9414699 32.3671875 42.19140625 C29.99296886 39.92723648 29.99296886 39.92723648 27.1953125 37.83984375 C26.10863281 36.92912109 26.10863281 36.92912109 25 36 C25 35.34 25 34.68 25 34 C24.34 34 23.68 34 23 34 C14.27643637 25.79687625 5.1552602 13.85538529 0 3 C0 2.01 0 1.02 0 0 Z " fill="#071130" transform="translate(193,783)"/>
<path d="M0 0 C1.69752187 0.25245197 3.38471545 0.57645775 5.0625 0.9375 C5.98160156 1.13214844 6.90070313 1.32679688 7.84765625 1.52734375 C8.55792969 1.68332031 9.26820313 1.83929688 10 2 C10 2.33 10 2.66 10 3 C8.72769531 3.08636719 7.45539063 3.17273438 6.14453125 3.26171875 C-15.22507886 4.89749322 -35.63863237 9.65853152 -55 19 C-56.62035156 19.75410156 -56.62035156 19.75410156 -58.2734375 20.5234375 C-72.05164354 27.11839904 -84.12240821 35.57778726 -95.53173828 45.70361328 C-96.91157811 46.92192879 -98.31257565 48.11616145 -99.71484375 49.30859375 C-105.90908722 54.6629398 -110.93643176 60.58614689 -116 67 C-117.97811892 69.35334973 -119.98650778 71.67673974 -122 74 C-122.33 73.34 -122.66 72.68 -123 72 C-101.92796628 42.22992779 -72.32428657 20.95195133 -38 9 C-37.27361328 8.74637695 -36.54722656 8.49275391 -35.79882812 8.23144531 C-25.64678186 4.77751222 -15.49407329 2.96455087 -4.875 1.578125 C-1.2286056 1.42694733 -1.2286056 1.42694733 0 0 Z " fill="#091535" transform="translate(326,144)"/>
<path d="M0 0 C0 0.99 0 1.98 0 3 C-2.31 5.31 -4.62 7.62 -7 10 C33.92 10.33 74.84 10.66 117 11 C117 11.33 117 11.66 117 12 C74.76 12.33 32.52 12.66 -11 13 C-9.07859132 9.15718264 -7.4073184 7.19568073 -4.375 4.25 C-3.55773437 3.45078125 -2.74046875 2.6515625 -1.8984375 1.828125 C-0.95871094 0.92320312 -0.95871094 0.92320312 0 0 Z " fill="#011357" transform="translate(382,495)"/>
<path d="M0 0 C1.37499515 4.12498544 -0.07852751 6.94762447 -1.45703125 10.88671875 C-1.85156746 12.05047783 -1.85156746 12.05047783 -2.2540741 13.23774719 C-3.09843504 15.72397394 -3.95482288 18.20583879 -4.8125 20.6875 C-5.65746898 23.15193252 -6.49981018 25.61721685 -7.33879089 28.08369446 C-7.86131611 29.61774459 -8.38755196 31.15053777 -8.91816711 32.68180847 C-10.53750466 37.40993363 -11.84704792 42.13635815 -13 47 C-8.48954059 44.53974941 -4.81495577 41.39717963 -1 38 C-2.55342978 41.76641634 -4.89767353 44.06942489 -7.8125 46.875 C-11.4553523 50.43877446 -14.84423578 54.00269866 -18 58 C-19.34387404 53.96837789 -18.02271071 51.3155333 -16.68359375 47.46484375 C-16.4300563 46.7127211 -16.17651886 45.96059845 -15.91529846 45.1856842 C-15.09776791 42.76667751 -14.26793451 40.35210351 -13.4375 37.9375 C-12.90476543 36.36942356 -12.37285611 34.80106649 -11.84179688 33.23242188 C-10.77692132 30.08927078 -9.70620834 26.94818882 -8.63232422 23.80810547 C-7.50082793 20.49014622 -6.39001323 17.16609462 -5.29345703 13.83642578 C-4.88209251 12.58920494 -4.88209251 12.58920494 -4.4624176 11.31678772 C-3.93704924 9.7203182 -3.41411759 8.12304426 -2.89390564 6.52488708 C-1.11019099 1.11019099 -1.11019099 1.11019099 0 0 Z " fill="#0D133A" transform="translate(521,574)"/>
<path d="M0 0 C0.33 0 0.66 0 1 0 C1.09796875 1.24652344 1.1959375 2.49304688 1.296875 3.77734375 C3.28516802 27.18318665 9.50472973 48.93257103 20 70 C16.35092371 68.78364124 16.1171341 67.92757323 14.375 64.625 C13.94960937 63.83351563 13.52421875 63.04203125 13.0859375 62.2265625 C12 60 12 60 11 57 C10.59265625 55.91976562 10.1853125 54.83953125 9.765625 53.7265625 C4.53275037 39.67877561 -1.17852536 23.52267615 -1.125 8.375 C-1.12757813 7.64023437 -1.13015625 6.90546875 -1.1328125 6.1484375 C-0.99910982 3.98560002 -0.59289685 2.07984449 0 0 Z " fill="#091434" transform="translate(173,712)"/>
<path d="M0 0 C0.33 0 0.66 0 1 0 C0.56287601 5.33291266 -0.09024324 10.5047608 -1.09257507 15.76261902 C-3.71107417 30.14215179 -3.56306557 44.61613901 -3.6875 59.1875 C-3.71919776 61.89522029 -3.75505883 64.60288022 -3.79101562 67.31054688 C-3.87504713 73.87359442 -3.94374624 80.43665858 -4 87 C-4.33 87 -4.66 87 -5 87 C-5.07018328 78.81868749 -5.12315191 70.6375053 -5.15543652 62.45596409 C-5.17094845 58.65502182 -5.19191383 54.85428873 -5.22631836 51.0534668 C-5.5627176 12.86992035 -5.5627176 12.86992035 0 0 Z " fill="#000516" transform="translate(177,271)"/>
<path d="M0 0 C0 0.33 0 0.66 0 1 C0.60247559 1.12004395 1.20495117 1.24008789 1.82568359 1.36376953 C12.4652903 3.51026828 23.00731631 5.74104317 33.3125 9.1875 C34.0638623 9.43709473 34.81522461 9.68668945 35.58935547 9.94384766 C40.72689852 11.72689852 40.72689852 11.72689852 43 14 C39.04619677 15.31793441 37.60102871 14.31158766 33.75 12.8125 C21.60083926 8.28594005 9.64899064 5.56567831 -3.20727539 4.03857422 C-4.07473389 3.9304541 -4.94219238 3.82233398 -5.8359375 3.7109375 C-7.00455322 3.57631104 -7.00455322 3.57631104 -8.19677734 3.43896484 C-8.79184082 3.29410645 -9.3869043 3.14924805 -10 3 C-10.33 2.34 -10.66 1.68 -11 1 C-7.32589215 -0.17571451 -3.83070817 -0.07366746 0 0 Z " fill="#081436" transform="translate(704,144)"/>
<path d="M0 0 C0.66 0.33 1.32 0.66 2 1 C1.5153125 1.7528125 1.030625 2.505625 0.53125 3.28125 C-7.4479022 15.92513733 -13.92762732 28.91648039 -19 43 C-19.60215025 44.60492465 -20.20600266 46.20921305 -20.8125 47.8125 C-21.204375 48.864375 -21.59625 49.91625 -22 51 C-22.33 51 -22.66 51 -23 51 C-22.47303432 44.69084922 -20.95600949 39.46971012 -18.5625 33.625 C-18.21413086 32.76447021 -17.86576172 31.90394043 -17.50683594 31.01733398 C-12.99212891 20.18144256 -7.66415678 8.98253238 0 0 Z " fill="#081331" transform="translate(201,219)"/>
<path d="M0 0 C0 3.69658948 -0.66572476 4.19886972 -3 7 C-3.44859375 7.57492187 -3.8971875 8.14984375 -4.359375 8.7421875 C-7.24892985 12.33178914 -9.37857452 14.77668149 -14 16 C-14 16.99 -14 17.98 -14 19 C-15.3984375 20.47265625 -15.3984375 20.47265625 -17.375 22.0625 C-22.56668419 26.39820759 -27.26437971 31.17704245 -32 36 C-32 33 -32 33 -29.40234375 30.14453125 C-28.25395857 29.02706995 -27.09857242 27.91677312 -25.9375 26.8125 C-24.72729776 25.63472982 -23.51894748 24.45505356 -22.3125 23.2734375 C-21.73242188 22.70592773 -21.15234375 22.13841797 -20.5546875 21.55371094 C-18.75492753 19.75508147 -17.07826695 17.88180883 -15.4375 15.9375 C-10.65292723 10.29073265 -5.267945 5.19009359 0 0 Z " fill="#0B1540" transform="translate(680,498)"/>
<path d="M0 0 C0 0.99 0 1.98 0 3 C-2.31 5.31 -4.62 7.62 -7 10 C9.335 10.495 9.335 10.495 26 11 C26 11.33 26 11.66 26 12 C13.79 12.33 1.58 12.66 -11 13 C-9.07859132 9.15718264 -7.4073184 7.19568073 -4.375 4.25 C-3.55773437 3.45078125 -2.74046875 2.6515625 -1.8984375 1.828125 C-0.95871094 0.92320312 -0.95871094 0.92320312 0 0 Z " fill="#030E45" transform="translate(382,495)"/>
<path d="M0 0 C0.33 0 0.66 0 1 0 C0.20096378 9.74824187 -1.42524017 19.353358 -3 29 C-3.66 29 -4.32 29 -5 29 C-3.89348172 3.89348172 -3.89348172 3.89348172 0 0 Z " fill="#091536" transform="translate(177,271)"/>
<path d="M0 0 C0 0.33 0 0.66 0 1 C4.95 1.99 9.9 2.98 15 4 C10.93650858 6.03174571 10.23631254 6.21538898 6.05078125 5.609375 C5.12072266 5.47660156 4.19066406 5.34382812 3.23242188 5.20703125 C2.26884766 5.05621094 1.30527344 4.90539062 0.3125 4.75 C-1.15026367 4.54697266 -1.15026367 4.54697266 -2.64257812 4.33984375 C-7.98490574 3.54425703 -7.98490574 3.54425703 -10 3 C-10.33 2.34 -10.66 1.68 -11 1 C-7.32589215 -0.17571451 -3.83070817 -0.07366746 0 0 Z " fill="#0C1B43" transform="translate(704,144)"/>
<path d="M0 0 C5.28 0 10.56 0 16 0 C15.01 0.33 14.02 0.66 13 1 C12.67 1.99 12.34 2.98 12 4 C3.42857143 4.28571429 3.42857143 4.28571429 0 2 C0 1.34 0 0.68 0 0 Z " fill="#0C1A3F" transform="translate(688,868)"/>
<path d="M0 0 C0.33 0.99 0.66 1.98 1 3 C-2.3 6.3 -5.6 9.6 -9 13 C-9.33 12.01 -9.66 11.02 -10 10 C-6.7 6.7 -3.4 3.4 0 0 Z " fill="#0B183A" transform="translate(811,811)"/>
<path d="M0 0 C2.31 0 4.62 0 7 0 C3.0580583 4.88049925 -1.11950075 9.0580583 -6 13 C-4.07712966 8.70621187 -1.37521131 6.22846299 2 3 C1.34 2.01 0.68 1.02 0 0 Z " fill="#000530" transform="translate(640,480)"/>
<path d="M0 0 C0.33 0.66 0.66 1.32 1 2 C-0.24760739 5.43800899 -2.24530108 7.35309522 -5 9.6875 C-5.70125 10.28949219 -6.4025 10.89148438 -7.125 11.51171875 C-9 13 -9 13 -11 14 C-9.61263874 10.84375314 -7.99607292 8.80136567 -5.5 6.4375 C-3.27903267 4.32475777 -1.72257583 2.58386374 0 0 Z " fill="#111437" transform="translate(513,356)"/>
<path d="M0 0 C0.66 0 1.32 0 2 0 C1.67 4.29 1.34 8.58 1 13 C-1.30143236 9.54785147 -1.13833854 8.76520676 -0.625 4.8125 C-0.51414062 3.91144531 -0.40328125 3.01039063 -0.2890625 2.08203125 C-0.19367187 1.39496094 -0.09828125 0.70789063 0 0 Z " fill="#0A183C" transform="translate(851,720)"/>
<path d="M0 0 C4.92127034 -0.16682272 8.50343896 -0.24828052 13 2 C13 2.33 13 2.66 13 3 C11.20759337 2.88610125 9.41605165 2.75852313 7.625 2.625 C6.12839844 2.52058594 6.12839844 2.52058594 4.6015625 2.4140625 C2 2 2 2 0 0 Z " fill="#091437" transform="translate(294,863)"/>
<path d="M0 0 C0.59425781 0.35449219 1.18851562 0.70898438 1.80078125 1.07421875 C0.34452675 1.74541424 -1.11429742 2.41103682 -2.57421875 3.07421875 C-3.79238281 3.63109375 -3.79238281 3.63109375 -5.03515625 4.19921875 C-7.19921875 5.07421875 -7.19921875 5.07421875 -9.19921875 5.07421875 C-8.19921875 2.07421875 -8.19921875 2.07421875 -5.38671875 0.26171875 C-2.19921875 -0.92578125 -2.19921875 -0.92578125 0 0 Z " fill="#0A1A42" transform="translate(272.19921875,160.92578125)"/>
<path d="M0 0 C0.66 0.33 1.32 0.66 2 1 C1.3503125 1.5878125 1.3503125 1.5878125 0.6875 2.1875 C-1.14560261 4.02238902 -1.14560261 4.02238902 -2.5625 6.6875 C-3.2740625 7.8321875 -3.2740625 7.8321875 -4 9 C-4.66 9 -5.32 9 -6 9 C-4.68775452 5.06326356 -3.08089673 2.77280706 0 0 Z " fill="#18234C" transform="translate(411,464)"/>
<path d="M0 0 C0.3125 2.25 0.3125 2.25 0 5 C-2.5 7.3125 -2.5 7.3125 -5 9 C-4.38709677 3.48387097 -4.38709677 3.48387097 -2.5 1.125 C-1 0 -1 0 0 0 Z " fill="#1E2649" transform="translate(507,623)"/>
<path d="M0 0 C0.33 0.99 0.66 1.98 1 3 C-0.21484375 4.82421875 -0.21484375 4.82421875 -1.9375 6.6875 C-2.50339844 7.31011719 -3.06929687 7.93273437 -3.65234375 8.57421875 C-4.09707031 9.04472656 -4.54179688 9.51523437 -5 10 C-5 6.60406522 -4.47834052 5.93380119 -2.5 3.3125 C-2.0359375 2.68988281 -1.571875 2.06726563 -1.09375 1.42578125 C-0.7328125 0.95527344 -0.371875 0.48476563 0 0 Z " fill="#050E28" transform="translate(818,802)"/>
<path d="M0 0 C1.98 0.66 3.96 1.32 6 2 C6 2.66 6 3.32 6 4 C6.66 4.33 7.32 4.66 8 5 C4.85262818 4.30058404 1.97411124 3.23921302 -1 2 C-0.67 1.34 -0.34 0.68 0 0 Z " fill="#0C1A42" transform="translate(275,855)"/>
<path d="M0 0 C0.33 0 0.66 0 1 0 C1 5.61 1 11.22 1 17 C0.67 17 0.34 17 0 17 C0 11.39 0 5.78 0 0 Z " fill="#152E69" transform="translate(855,303)"/>
<path d="M0 0 C0.33 0 0.66 0 1 0 C1 4.95 1 9.9 1 15 C0.67 15 0.34 15 0 15 C0 10.05 0 5.1 0 0 Z " fill="#17316B" transform="translate(169,483)"/>
<path d="M0 0 C0.33 0 0.66 0 1 0 C1 4.62 1 9.24 1 14 C0.67 14 0.34 14 0 14 C0 9.38 0 4.76 0 0 Z " fill="#17306A" transform="translate(169,603)"/>
<path d="M0 0 C0.33 0 0.66 0 1 0 C1 4.29 1 8.58 1 13 C0.67 13 0.34 13 0 13 C0 8.71 0 4.42 0 0 Z " fill="#16306B" transform="translate(855,523)"/>
<path d="M0 0 C0.33 0 0.66 0 1 0 C1 4.29 1 8.58 1 13 C0.67 13 0.34 13 0 13 C0 8.71 0 4.42 0 0 Z " fill="#17316B" transform="translate(169,379)"/>
<path d="M0 0 C0 0.99 0 1.98 0 3 C-1.98 3 -3.96 3 -6 3 C-6.33 2.34 -6.66 1.68 -7 1 C-3.535 0.505 -3.535 0.505 0 0 Z " fill="#162D64" transform="translate(709,869)"/>
<path d="M0 0 C0.33 0 0.66 0 1 0 C1 3.63 1 7.26 1 11 C0.67 11 0.34 11 0 11 C0 7.37 0 3.74 0 0 Z " fill="#17316B" transform="translate(169,471)"/>
<path d="M0 0 C0.33 0 0.66 0 1 0 C1 3.3 1 6.6 1 10 C0.67 10 0.34 10 0 10 C0 6.7 0 3.4 0 0 Z " fill="#162F6A" transform="translate(855,688)"/>
<path d="M0 0 C0.33 0 0.66 0 1 0 C1 3.3 1 6.6 1 10 C0.67 10 0.34 10 0 10 C0 6.7 0 3.4 0 0 Z " fill="#152F6A" transform="translate(855,677)"/>
<path d="M0 0 C0.33 0 0.66 0 1 0 C1 2.97 1 5.94 1 9 C0.67 9 0.34 9 0 9 C0 6.03 0 3.06 0 0 Z " fill="#18316B" transform="translate(169,536)"/>
<path d="M0 0 C0.33 0 0.66 0 1 0 C1 2.64 1 5.28 1 8 C0.67 8 0.34 8 0 8 C0 5.36 0 2.72 0 0 Z " fill="#17316B" transform="translate(169,650)"/>
<path d="M0 0 C0.33 0 0.66 0 1 0 C1 2.64 1 5.28 1 8 C0.67 8 0.34 8 0 8 C0 5.36 0 2.72 0 0 Z " fill="#162F6A" transform="translate(855,559)"/>
<path d="M0 0 C0.33 0 0.66 0 1 0 C1 2.64 1 5.28 1 8 C0.67 8 0.34 8 0 8 C0 5.36 0 2.72 0 0 Z " fill="#18306B" transform="translate(169,506)"/>
<path d="M0 0 C2.64 0 5.28 0 8 0 C8 0.33 8 0.66 8 1 C5.36 1 2.72 1 0 1 C0 0.67 0 0.34 0 0 Z " fill="#17306A" transform="translate(317,144)"/>
<path d="M0 0 C0.66 0 1.32 0 2 0 C2 1.98 2 3.96 2 6 C1.67 6 1.34 6 1 6 C0.67 4.02 0.34 2.04 0 0 Z " fill="#17316B" transform="translate(168,595)"/>
<path d="M0 0 C0.33 0 0.66 0 1 0 C1 2.31 1 4.62 1 7 C0.67 7 0.34 7 0 7 C0 4.69 0 2.38 0 0 Z " fill="#18316C" transform="translate(169,562)"/>
<path d="M0 0 C0.33 0 0.66 0 1 0 C1 2.31 1 4.62 1 7 C0.67 7 0.34 7 0 7 C0 4.69 0 2.38 0 0 Z " fill="#17316B" transform="translate(169,463)"/>
<path d="M0 0 C0.33 0 0.66 0 1 0 C1 2.31 1 4.62 1 7 C0.67 7 0.34 7 0 7 C0 4.69 0 2.38 0 0 Z " fill="#152F6B" transform="translate(855,416)"/>
<path d="M0 0 C0.33 0 0.66 0 1 0 C1 2.31 1 4.62 1 7 C0.67 7 0.34 7 0 7 C0 4.69 0 2.38 0 0 Z " fill="#18316B" transform="translate(169,371)"/>
<path d="M0 0 C0.33 0 0.66 0 1 0 C1 1.98 1 3.96 1 6 C0.67 6 0.34 6 0 6 C0 4.02 0 2.04 0 0 Z " fill="#17306B" transform="translate(169,683)"/>
<path d="M0 0 C0.66 0 1.32 0 2 0 C2 1.65 2 3.3 2 5 C0 1.125 0 1.125 0 0 Z " fill="#17316B" transform="translate(168,667)"/>
<path d="M0 0 C0.33 0 0.66 0 1 0 C1 1.98 1 3.96 1 6 C0.67 6 0.34 6 0 6 C0 4.02 0 2.04 0 0 Z " fill="#17316C" transform="translate(169,659)"/>
<path d="M0 0 C0.33 0 0.66 0 1 0 C1 1.98 1 3.96 1 6 C0.67 6 0.34 6 0 6 C0 4.02 0 2.04 0 0 Z " fill="#17326C" transform="translate(169,627)"/>
<path d="M0 0 C0.33 0 0.66 0 1 0 C1 1.98 1 3.96 1 6 C0.67 6 0.34 6 0 6 C0 4.02 0 2.04 0 0 Z " fill="#18316B" transform="translate(169,619)"/>
<path d="M0 0 C0.33 0 0.66 0 1 0 C1 1.98 1 3.96 1 6 C0.67 6 0.34 6 0 6 C0 4.02 0 2.04 0 0 Z " fill="#162F6B" transform="translate(855,600)"/>
<path d="M0 0 C0.33 0 0.66 0 1 0 C1 1.98 1 3.96 1 6 C0.67 6 0.34 6 0 6 C0 4.02 0 2.04 0 0 Z " fill="#17326B" transform="translate(169,499)"/>
<path d="M0 0 C0.33 0 0.66 0 1 0 C1 1.98 1 3.96 1 6 C0.67 6 0.34 6 0 6 C0 4.02 0 2.04 0 0 Z " fill="#152F6B" transform="translate(855,496)"/>
<path d="M0 0 C0.33 0 0.66 0 1 0 C1 1.98 1 3.96 1 6 C0.67 6 0.34 6 0 6 C0 4.02 0 2.04 0 0 Z " fill="#16306B" transform="translate(855,488)"/>
<path d="M0 0 C0.33 0 0.66 0 1 0 C1 1.98 1 3.96 1 6 C0.67 6 0.34 6 0 6 C0 4.02 0 2.04 0 0 Z " fill="#153069" transform="translate(855,480)"/>
<path d="M0 0 C0.33 0 0.66 0 1 0 C1 1.98 1 3.96 1 6 C0.67 6 0.34 6 0 6 C0 4.02 0 2.04 0 0 Z " fill="#16306B" transform="translate(855,456)"/>
<path d="M0 0 C0.33 0 0.66 0 1 0 C1 1.98 1 3.96 1 6 C0.67 6 0.34 6 0 6 C0 4.02 0 2.04 0 0 Z " fill="#162F6A" transform="translate(855,432)"/>
<path d="M0 0 C0.33 0 0.66 0 1 0 C1 1.98 1 3.96 1 6 C0.67 6 0.34 6 0 6 C0 4.02 0 2.04 0 0 Z " fill="#18316A" transform="translate(169,431)"/>
<path d="M0 0 C0.33 0 0.66 0 1 0 C1 1.98 1 3.96 1 6 C0.67 6 0.34 6 0 6 C0 4.02 0 2.04 0 0 Z " fill="#152F6B" transform="translate(855,376)"/>
<path d="M0 0 C0.33 0 0.66 0 1 0 C1 1.98 1 3.96 1 6 C0.67 6 0.34 6 0 6 C0 4.02 0 2.04 0 0 Z " fill="#162F6A" transform="translate(855,368)"/>
<path d="M0 0 C1.65 0 3.3 0 5 0 C5 0.33 5 0.66 5 1 C3.35 1 1.7 1 0 1 C0 0.67 0 0.34 0 0 Z " fill="#192F6A" transform="translate(331,871)"/>
<path d="M0 0 C1.98 0.99 1.98 0.99 4 2 C2.68 1.67 1.36 1.34 0 1 C0 0.67 0 0.34 0 0 Z " fill="#172D65" transform="translate(282,861)"/>
<path d="M0 0 C0.99 0.33 1.98 0.66 3 1 C2.67 1.66 2.34 2.32 2 3 C1.34 2.01 0.68 1.02 0 0 Z " fill="#172E64" transform="translate(224,826)"/>
<path d="M0 0 C0.33 0 0.66 0 1 0 C1 1.65 1 3.3 1 5 C0.67 5 0.34 5 0 5 C0 3.35 0 1.7 0 0 Z " fill="#18306A" transform="translate(169,691)"/>
<path d="M0 0 C0.33 0 0.66 0 1 0 C1 1.65 1 3.3 1 5 C0.67 5 0.34 5 0 5 C0 3.35 0 1.7 0 0 Z " fill="#17306A" transform="translate(169,675)"/>
<path d="M0 0 C0.33 0 0.66 0 1 0 C1 1.65 1 3.3 1 5 C0.67 5 0.34 5 0 5 C0 3.35 0 1.7 0 0 Z " fill="#16316B" transform="translate(169,643)"/>
<path d="M0 0 C0.33 0 0.66 0 1 0 C1 1.65 1 3.3 1 5 C0.67 5 0.34 5 0 5 C0 3.35 0 1.7 0 0 Z " fill="#162F6A" transform="translate(855,545)"/>
<path d="M0 0 C0.33 0 0.66 0 1 0 C1 1.65 1 3.3 1 5 C0.67 5 0.34 5 0 5 C0 3.35 0 1.7 0 0 Z " fill="#17326C" transform="translate(169,547)"/>
<path d="M0 0 C0.33 0 0.66 0 1 0 C1 1.65 1 3.3 1 5 C0.67 5 0.34 5 0 5 C0 3.35 0 1.7 0 0 Z " fill="#162F6A" transform="translate(855,537)"/>
<path d="M0 0 C0.33 0 0.66 0 1 0 C1 1.65 1 3.3 1 5 C0.67 5 0.34 5 0 5 C0 3.35 0 1.7 0 0 Z " fill="#18316B" transform="translate(169,523)"/>
<path d="M0 0 C0.33 0 0.66 0 1 0 C1 1.65 1 3.3 1 5 C0.67 5 0.34 5 0 5 C0 3.35 0 1.7 0 0 Z " fill="#16306C" transform="translate(855,505)"/>
<path d="M0 0 C0.33 0 0.66 0 1 0 C1 1.65 1 3.3 1 5 C0.67 5 0.34 5 0 5 C0 3.35 0 1.7 0 0 Z " fill="#17306B" transform="translate(855,473)"/>
<path d="M0 0 C0.33 0 0.66 0 1 0 C1 1.65 1 3.3 1 5 C0.67 5 0.34 5 0 5 C0 3.35 0 1.7 0 0 Z " fill="#17326B" transform="translate(169,411)"/>
<path d="M0 0 C1.32 0.33 2.64 0.66 4 1 C3.01 1.495 3.01 1.495 2 2 C1.34 1.34 0.68 0.68 0 0 Z " fill="#152D66" transform="translate(756,160)"/>
<path d="M0 0 C1.485 0.99 1.485 0.99 3 2 C2.01 2 1.02 2 0 2 C0 1.34 0 0.68 0 0 Z " fill="#182D65" transform="translate(200,800)"/>
<path d="M0 0 C1 4 1 4 1 4 Z " fill="#182F68" transform="translate(172,732)"/>
<path d="M0 0 C1 4 1 4 1 4 Z " fill="#152D66" transform="translate(854,719)"/>
<path d="M0 0 C1 4 1 4 1 4 Z " fill="#142F6B" transform="translate(855,666)"/>
<path d="M0 0 C1 4 1 4 1 4 Z " fill="#162F6C" transform="translate(855,570)"/>
<path d="M0 0 C1 4 1 4 1 4 Z " fill="#18326C" transform="translate(169,570)"/>
<path d="M0 0 C1 4 1 4 1 4 Z " fill="#17306B" transform="translate(855,410)"/>
<path d="M0 0 C1 4 1 4 1 4 Z " fill="#142E68" transform="translate(855,323)"/>
<path d="M0 0 C4 1 4 1 4 1 Z " fill="#173169" transform="translate(719,147)"/>
<path d="M0 0 C3 1 3 1 3 1 Z " fill="#172F67" transform="translate(327,871)"/>
<path d="M0 0 C3 1 3 1 3 1 Z " fill="#172F67" transform="translate(319,870)"/>
<path d="M0 0 C3 1 3 1 3 1 Z " fill="#182D65" transform="translate(711,869)"/>
<path d="M0 0 C0.66 0 1.32 0 2 0 C1.67 0.66 1.34 1.32 1 2 C0.67 1.34 0.34 0.68 0 0 Z " fill="#162D63" transform="translate(238,838)"/>
<path d="" fill="#172F66" transform="translate(0,0)"/>
<path d="" fill="#152E67" transform="translate(0,0)"/>
<path d="" fill="#152D68" transform="translate(0,0)"/>
<path d="" fill="#15306B" transform="translate(0,0)"/>
<path d="" fill="#17316A" transform="translate(0,0)"/>
<path d="" fill="#162F6C" transform="translate(0,0)"/>
<path d="" fill="#152E6B" transform="translate(0,0)"/>
<path d="" fill="#18326C" transform="translate(0,0)"/>
<path d="" fill="#142F6C" transform="translate(0,0)"/>
<path d="" fill="#18316C" transform="translate(0,0)"/>
<path d="" fill="#19306A" transform="translate(0,0)"/>
<path d="" fill="#17306B" transform="translate(0,0)"/>
<path d="" fill="#18326C" transform="translate(0,0)"/>
<path d="" fill="#19326C" transform="translate(0,0)"/>
<path d="" fill="#19316B" transform="translate(0,0)"/>
<path d="" fill="#18326C" transform="translate(0,0)"/>
<path d="" fill="#16316D" transform="translate(0,0)"/>
<path d="" fill="#17326C" transform="translate(0,0)"/>
<path d="" fill="#18326B" transform="translate(0,0)"/>
<path d="" fill="#15316B" transform="translate(0,0)"/>
<path d="" fill="#18316B" transform="translate(0,0)"/>
<path d="" fill="#18316B" transform="translate(0,0)"/>
<path d="" fill="#17316C" transform="translate(0,0)"/>
<path d="" fill="#162F6B" transform="translate(0,0)"/>
<path d="" fill="#18346E" transform="translate(0,0)"/>
<path d="" fill="#18326C" transform="translate(0,0)"/>
<path d="" fill="#16306D" transform="translate(0,0)"/>
<path d="" fill="#152F6B" transform="translate(0,0)"/>
<path d="" fill="#18316C" transform="translate(0,0)"/>
<path d="" fill="#16316C" transform="translate(0,0)"/>
<path d="" fill="#19326D" transform="translate(0,0)"/>
<path d="" fill="#152F6A" transform="translate(0,0)"/>
<path d="" fill="#172F69" transform="translate(0,0)"/>
<path d="" fill="#162F6A" transform="translate(0,0)"/>
<path d="" fill="#173169" transform="translate(0,0)"/>
<path d="" fill="#172F66" transform="translate(0,0)"/>
<path d="M0 0 C0.33 0.66 0.66 1.32 1 2 C0.34 1.67 -0.32 1.34 -1 1 C-0.67 0.67 -0.34 0.34 0 0 Z " fill="#17306A" transform="translate(265,160)"/>
<path d="M0 0 C3 1 3 1 3 1 Z " fill="#162E69" transform="translate(710,145)"/>
<path d="M0 0 C2 1 2 1 2 1 Z " fill="#182E67" transform="translate(324,871)"/>
<path d="M0 0 C2 1 2 1 2 1 Z " fill="#162D66" transform="translate(313,869)"/>
<path d="M0 0 C2 1 2 1 2 1 Z " fill="#182E65" transform="translate(304,869)"/>
<path d="M0 0 C2 1 2 1 2 1 Z " fill="#162D65" transform="translate(306,868)"/>
<path d="M0 0 C2 1 2 1 2 1 Z " fill="#182E64" transform="translate(735,863)"/>
<path d="M0 0 C2 1 2 1 2 1 Z " fill="#182C65" transform="translate(277,859)"/>
<path d="M0 0 C2 1 2 1 2 1 Z " fill="#172D65" transform="translate(272,857)"/>
<path d="M0 0 C2 1 2 1 2 1 Z " fill="#183067" transform="translate(756,855)"/>
<path d="M0 0 C2 1 2 1 2 1 Z " fill="#172D64" transform="translate(221,823)"/>
<path d="M0 0 C2 1 2 1 2 1 Z " fill="#172D64" transform="translate(201,803)"/>
<path d="" fill="#182F66" transform="translate(0,0)"/>
<path d="" fill="#182D64" transform="translate(0,0)"/>
<path d="M0 0 C2 1 2 1 2 1 Z " fill="#162E62" transform="translate(188,782)"/>
<path d="" fill="#172E68" transform="translate(0,0)"/>
<path d="" fill="#172E64" transform="translate(0,0)"/>
<path d="" fill="#173067" transform="translate(0,0)"/>
<path d="" fill="#172F66" transform="translate(0,0)"/>
<path d="" fill="#162E69" transform="translate(0,0)"/>
<path d="" fill="#16306B" transform="translate(0,0)"/>
<path d="" fill="#142D6A" transform="translate(0,0)"/>
<path d="" fill="#172F6B" transform="translate(0,0)"/>
<path d="" fill="#162F6A" transform="translate(0,0)"/>
<path d="" fill="#152F6A" transform="translate(0,0)"/>
<path d="" fill="#16306A" transform="translate(0,0)"/>
<path d="" fill="#18306B" transform="translate(0,0)"/>
<path d="" fill="#172E6A" transform="translate(0,0)"/>
<path d="" fill="#17306B" transform="translate(0,0)"/>
<path d="" fill="#14306A" transform="translate(0,0)"/>
<path d="" fill="#17316B" transform="translate(0,0)"/>
<path d="" fill="#15316B" transform="translate(0,0)"/>
<path d="" fill="#16306B" transform="translate(0,0)"/>
<path d="" fill="#17306A" transform="translate(0,0)"/>
<path d="" fill="#142F68" transform="translate(0,0)"/>
<path d="" fill="#17316C" transform="translate(0,0)"/>
<path d="" fill="#152F6B" transform="translate(0,0)"/>
<path d="" fill="#17306B" transform="translate(0,0)"/>
<path d="" fill="#152F69" transform="translate(0,0)"/>
<path d="" fill="#16306B" transform="translate(0,0)"/>
<path d="" fill="#18306C" transform="translate(0,0)"/>
<path d="" fill="#16306B" transform="translate(0,0)"/>
<path d="" fill="#162D67" transform="translate(0,0)"/>
<path d="" fill="#18316A" transform="translate(0,0)"/>
<path d="" fill="#16316B" transform="translate(0,0)"/>
<path d="" fill="#18306A" transform="translate(0,0)"/>
<path d="" fill="#193168" transform="translate(0,0)"/>
<path d="" fill="#182E66" transform="translate(0,0)"/>
<path d="M0 0 C2 1 2 1 2 1 Z " fill="#172F68" transform="translate(192,227)"/>
<path d="" fill="#172C63" transform="translate(0,0)"/>
<path d="M0 0 C2 1 2 1 2 1 Z " fill="#172961" transform="translate(822,208)"/>
<path d="M0 0 C2 1 2 1 2 1 Z " fill="#19316B" transform="translate(240,176)"/>
<path d="M0 0 C2 1 2 1 2 1 Z " fill="#142D65" transform="translate(771,168)"/>
<path d="M0 0 C2 1 2 1 2 1 Z " fill="#182D65" transform="translate(761,162)"/>
<path d="M0 0 C2 1 2 1 2 1 Z " fill="#172E65" transform="translate(280,154)"/>
<path d="M0 0 C2 1 2 1 2 1 Z " fill="#172F68" transform="translate(286,152)"/>
<path d="M0 0 C2 1 2 1 2 1 Z " fill="#172E68" transform="translate(705,144)"/>
<path d="" fill="#162B63" transform="translate(0,0)"/>
<path d="" fill="#1B2E65" transform="translate(0,0)"/>
<path d="" fill="#172C63" transform="translate(0,0)"/>
<path d="" fill="#172E65" transform="translate(0,0)"/>
<path d="" fill="#172E66" transform="translate(0,0)"/>
<path d="" fill="#172E66" transform="translate(0,0)"/>
<path d="" fill="#182D63" transform="translate(0,0)"/>
<path d="" fill="#172F66" transform="translate(0,0)"/>
<path d="" fill="#172A67" transform="translate(0,0)"/>
<path d="" fill="#172E69" transform="translate(0,0)"/>
<path d="" fill="#192D63" transform="translate(0,0)"/>
<path d="" fill="#172E63" transform="translate(0,0)"/>
<path d="" fill="#182E63" transform="translate(0,0)"/>
<path d="" fill="#192C63" transform="translate(0,0)"/>
<path d="" fill="#192E64" transform="translate(0,0)"/>
<path d="" fill="#172D68" transform="translate(0,0)"/>
<path d="" fill="#172C62" transform="translate(0,0)"/>
<path d="" fill="#152A5E" transform="translate(0,0)"/>
<path d="" fill="#162A62" transform="translate(0,0)"/>
<path d="" fill="#172D61" transform="translate(0,0)"/>
<path d="" fill="#162E67" transform="translate(0,0)"/>
<path d="" fill="#182E67" transform="translate(0,0)"/>
<path d="" fill="#172B63" transform="translate(0,0)"/>
<path d="" fill="#172D65" transform="translate(0,0)"/>
<path d="" fill="#1A2D63" transform="translate(0,0)"/>
<path d="" fill="#172F66" transform="translate(0,0)"/>
<path d="" fill="#162E69" transform="translate(0,0)"/>
<path d="" fill="#192B62" transform="translate(0,0)"/>
<path d="" fill="#182C68" transform="translate(0,0)"/>
<path d="" fill="#182C62" transform="translate(0,0)"/>
<path d="" fill="#172D65" transform="translate(0,0)"/>
<path d="" fill="#152E65" transform="translate(0,0)"/>
<path d="" fill="#182D62" transform="translate(0,0)"/>
<path d="" fill="#192C64" transform="translate(0,0)"/>
<path d="" fill="#1A2F63" transform="translate(0,0)"/>
<path d="" fill="#172C65" transform="translate(0,0)"/>
<path d="" fill="#173067" transform="translate(0,0)"/>
<path d="" fill="#162E64" transform="translate(0,0)"/>
<path d="" fill="#182F64" transform="translate(0,0)"/>
<path d="" fill="#162D64" transform="translate(0,0)"/>
<path d="" fill="#182F66" transform="translate(0,0)"/>
<path d="" fill="#182F63" transform="translate(0,0)"/>
<path d="" fill="#193066" transform="translate(0,0)"/>
<path d="" fill="#162C63" transform="translate(0,0)"/>
<path d="" fill="#182D65" transform="translate(0,0)"/>
<path d="" fill="#182D61" transform="translate(0,0)"/>
<path d="" fill="#182C63" transform="translate(0,0)"/>
<path d="" fill="#182C61" transform="translate(0,0)"/>
<path d="" fill="#1B2F62" transform="translate(0,0)"/>
<path d="" fill="#162F65" transform="translate(0,0)"/>
<path d="" fill="#182C61" transform="translate(0,0)"/>
<path d="" fill="#162F65" transform="translate(0,0)"/>
<path d="" fill="#172C61" transform="translate(0,0)"/>
<path d="" fill="#162D64" transform="translate(0,0)"/>
<path d="" fill="#182E66" transform="translate(0,0)"/>
<path d="" fill="#182D68" transform="translate(0,0)"/>
<path d="" fill="#162E69" transform="translate(0,0)"/>
<path d="" fill="#182D63" transform="translate(0,0)"/>
<path d="" fill="#182C64" transform="translate(0,0)"/>
<path d="" fill="#172F69" transform="translate(0,0)"/>
<path d="" fill="#182D66" transform="translate(0,0)"/>
<path d="" fill="#163067" transform="translate(0,0)"/>
<path d="" fill="#152F68" transform="translate(0,0)"/>
<path d="" fill="#172F67" transform="translate(0,0)"/>
<path d="" fill="#163069" transform="translate(0,0)"/>
<path d="" fill="#1A3169" transform="translate(0,0)"/>
<path d="" fill="#172F67" transform="translate(0,0)"/>
<path d="" fill="#152B68" transform="translate(0,0)"/>
<path d="" fill="#152F6B" transform="translate(0,0)"/>
<path d="" fill="#143069" transform="translate(0,0)"/>
<path d="" fill="#17306C" transform="translate(0,0)"/>
<path d="" fill="#17316D" transform="translate(0,0)"/>
<path d="" fill="#142F6A" transform="translate(0,0)"/>
<path d="" fill="#16316A" transform="translate(0,0)"/>
<path d="" fill="#192F6B" transform="translate(0,0)"/>
<path d="" fill="#17316E" transform="translate(0,0)"/>
<path d="" fill="#152E69" transform="translate(0,0)"/>
<path d="" fill="#18316C" transform="translate(0,0)"/>
<path d="" fill="#162E6A" transform="translate(0,0)"/>
<path d="" fill="#17306C" transform="translate(0,0)"/>
<path d="" fill="#132C66" transform="translate(0,0)"/>
<path d="" fill="#16316B" transform="translate(0,0)"/>
<path d="" fill="#1A3068" transform="translate(0,0)"/>
<path d="" fill="#173067" transform="translate(0,0)"/>
<path d="" fill="#17306B" transform="translate(0,0)"/>
<path d="" fill="#172E65" transform="translate(0,0)"/>
<path d="" fill="#152E65" transform="translate(0,0)"/>
<path d="" fill="#172D64" transform="translate(0,0)"/>
<path d="" fill="#192E65" transform="translate(0,0)"/>
<path d="" fill="#172E67" transform="translate(0,0)"/>
<path d="" fill="#172F67" transform="translate(0,0)"/>
<path d="" fill="#152E69" transform="translate(0,0)"/>
<path d="" fill="#163066" transform="translate(0,0)"/>
<path d="" fill="#183068" transform="translate(0,0)"/>
<path d="" fill="#162E67" transform="translate(0,0)"/>
<path d="" fill="#17306E" transform="translate(0,0)"/>
<path d="" fill="#182E65" transform="translate(0,0)"/>
<path d="" fill="#182E68" transform="translate(0,0)"/>
<path d="" fill="#182F65" transform="translate(0,0)"/>
<path d="" fill="#162D63" transform="translate(0,0)"/>
<path d="" fill="#192E65" transform="translate(0,0)"/>
<path d="" fill="#1A3064" transform="translate(0,0)"/>
<path d="" fill="#182F67" transform="translate(0,0)"/>
<path d="" fill="#17306A" transform="translate(0,0)"/>
<path d="" fill="#192F67" transform="translate(0,0)"/>
<path d="" fill="#182F6A" transform="translate(0,0)"/>
<path d="" fill="#142E64" transform="translate(0,0)"/>
<path d="" fill="#162D63" transform="translate(0,0)"/>
<path d="" fill="#182E66" transform="translate(0,0)"/>
<path d="" fill="#1A2F67" transform="translate(0,0)"/>
<path d="" fill="#163268" transform="translate(0,0)"/>
<path d="" fill="#162E67" transform="translate(0,0)"/>
<path d="" fill="#183068" transform="translate(0,0)"/>
<path d="" fill="#172F64" transform="translate(0,0)"/>
<path d="" fill="#162C66" transform="translate(0,0)"/>
<path d="" fill="#1A2F68" transform="translate(0,0)"/>
<path d="" fill="#153271" transform="translate(0,0)"/>
<path d="" fill="#183068" transform="translate(0,0)"/>
<path d="" fill="#182E69" transform="translate(0,0)"/>
<path d="" fill="#182D63" transform="translate(0,0)"/>
<path d="" fill="#182F66" transform="translate(0,0)"/>
<path d="" fill="#162F65" transform="translate(0,0)"/>
<path d="" fill="#152F69" transform="translate(0,0)"/>
<path d="" fill="#182E66" transform="translate(0,0)"/>
<path d="" fill="#172E69" transform="translate(0,0)"/>
<path d="" fill="#162E64" transform="translate(0,0)"/>
<path d="" fill="#162E67" transform="translate(0,0)"/>
<path d="" fill="#182F68" transform="translate(0,0)"/>
<path d="" fill="#162E66" transform="translate(0,0)"/>
<path d="" fill="#182F66" transform="translate(0,0)"/>
<path d="" fill="#152E66" transform="translate(0,0)"/>
<path d="" fill="#192D68" transform="translate(0,0)"/>
<path d="" fill="#163069" transform="translate(0,0)"/>
<path d="" fill="#19306C" transform="translate(0,0)"/>
<path d="" fill="#19326B" transform="translate(0,0)"/>
<path d="" fill="#1A316C" transform="translate(0,0)"/>
<path d="" fill="#162F6B" transform="translate(0,0)"/>
<path d="" fill="#15326A" transform="translate(0,0)"/>
<path d="" fill="#14306B" transform="translate(0,0)"/>
<path d="" fill="#172E69" transform="translate(0,0)"/>
<path d="" fill="#1B326D" transform="translate(0,0)"/>
<path d="" fill="#1A336F" transform="translate(0,0)"/>
</svg>
