<?xml version="1.0" encoding="UTF-8"?>
<svg version="1.1" xmlns="http://www.w3.org/2000/svg" width="1536" height="1024">
<path d="M0 0 C506.88 0 1013.76 0 1536 0 C1536 337.92 1536 675.84 1536 1024 C1029.12 1024 522.24 1024 0 1024 C0 686.08 0 348.16 0 0 Z " fill="#000000" transform="translate(0,0)"/>
<path d="M0 0 C2.4375 0.57421875 2.4375 0.57421875 4 2.3125 C4.474375 3.16199219 4.94875 4.01148438 5.4375 4.88671875 C8.70655042 10.42335995 12.21765584 15.72298445 15.875 21.01171875 C20.0513405 27.06677194 24.16639885 33.1579516 28.23950195 39.28295898 C30.63196002 42.86540119 33.04302643 46.43471217 35.4609375 50 C36.11483208 50.96419106 36.11483208 50.96419106 36.78193665 51.94786072 C38.57083849 54.58469553 40.36050256 57.2210123 42.15039062 59.85717773 C43.48358647 61.82110404 44.81620816 63.78541794 46.1484375 65.75 C46.58437225 66.39273865 47.02030701 67.03547729 47.4694519 67.69769287 C51.03215005 72.95837008 54.55841559 78.24289439 58.05990601 83.54450989 C60.98206508 87.95156397 64.05504857 92.21938623 67.2578125 96.42578125 C68.78997037 99.21613499 69.0216405 100.42077279 68.4375 103.57421875 C66.96445785 106.27071521 65.15263393 108.68101382 63.3125 111.13671875 C62.20360447 112.65955758 61.09556624 114.18302096 59.98828125 115.70703125 C59.11357178 116.90054199 59.11357178 116.90054199 58.22119141 118.11816406 C55.25230971 122.20616705 52.38254977 126.36263684 49.5 130.51171875 C44.4528904 137.74463378 39.32399487 144.91287897 34.13452148 152.04418945 C30.51504972 157.03394137 27.01799971 162.09493836 23.5625 167.19921875 C19.8617843 172.6572427 16.02636959 177.81307078 11.4375 182.57421875 C12.91777131 186.9499658 15.29096752 190.31624372 18.0625 193.94921875 C22.9774767 200.51863478 27.70467277 207.20393026 32.375 213.94921875 C37.03623747 220.67654182 41.70548377 227.39645609 46.4375 234.07421875 C52.57006068 242.7338869 58.62275958 251.44869055 64.67578125 260.1640625 C67.66615422 264.46856122 70.66824251 268.76468546 73.67553711 273.05737305 C83.52128681 287.12136552 93.28737605 301.2383892 102.96435547 315.41894531 C105.23911584 318.74701701 107.52595506 322.06673813 109.8125 325.38671875 C114.16364749 331.7079402 118.49108651 338.04513897 122.8125 344.38671875 C123.45243896 345.32563965 124.09237793 346.26456055 124.75170898 347.23193359 C130.28590519 355.35173872 130.28590519 355.35173872 132.11767578 358.04003906 C139.24430386 368.49473958 146.44254532 378.89673061 153.68261719 389.27319336 C157.94843971 395.39920955 162.15645294 401.55767206 166.2565918 407.79589844 C168.46686732 411.15451921 168.46686732 411.15451921 170.85009766 414.390625 C172.13364924 416.05434098 173.2943447 417.81108192 174.4375 419.57421875 C174.07299805 421.78320313 174.07299805 421.78320313 173.4375 423.57421875 C154.93113245 423.8314104 136.42512845 424.02526658 117.91734314 424.14415264 C109.32335602 424.20082642 100.73048051 424.27805966 92.13720703 424.40405273 C84.64543723 424.51384321 77.15447249 424.58469322 69.66192055 424.60919219 C65.69571872 424.62351026 61.73181947 424.65704179 57.76635742 424.73724937 C54.02930859 424.81222077 50.29549731 424.83489188 46.55776787 424.81840324 C44.54069953 424.82284811 42.52398019 424.88189953 40.50782776 424.94284058 C31.77695815 424.83411068 31.77695815 424.83411068 27.8894043 421.17748451 C25.84164694 418.3916867 24.11286229 415.59511916 22.4375 412.57421875 C21.55493011 411.27294972 20.66047588 409.97943889 19.7421875 408.703125 C18.93102755 407.51518511 18.12115134 406.32636772 17.3125 405.13671875 C8.74799728 392.61351255 0.01370867 380.20856078 -8.75 367.82421875 C-12.56287233 362.43576898 -16.3330312 357.0207136 -20.0625 351.57421875 C-25.81064947 343.18030889 -31.6801883 334.87443635 -37.5625 326.57421875 C-41.57314884 320.9150052 -45.57612748 315.25056495 -49.5625 309.57421875 C-50.0889209 308.8255957 -50.6153418 308.07697266 -51.15771484 307.30566406 C-52.71477488 305.08643876 -54.26472075 302.8624238 -55.8125 300.63671875 C-56.29082275 299.95601318 -56.76914551 299.27530762 -57.26196289 298.57397461 C-60.5625 293.80408319 -60.5625 293.80408319 -60.5625 291.57421875 C-61.2225 291.57421875 -61.8825 291.57421875 -62.5625 291.57421875 C-62.83545898 292.31341553 -63.10841797 293.0526123 -63.38964844 293.81420898 C-64.4933861 296.41157666 -65.69790945 298.44306443 -67.328125 300.734375 C-67.88129395 301.51772217 -68.43446289 302.30106934 -69.00439453 303.1081543 C-69.60106934 303.94258057 -70.19774414 304.77700684 -70.8125 305.63671875 C-72.08608611 307.43609274 -73.35951931 309.23557496 -74.6328125 311.03515625 C-75.28540039 311.95393555 -75.93798828 312.87271484 -76.61035156 313.81933594 C-79.65703118 318.11882729 -82.67079328 322.44117401 -85.6875 326.76171875 C-91.46851868 335.02467436 -97.27725107 343.26774897 -103.09912109 351.50195312 C-104.5750684 353.59201665 -106.04774322 355.68434964 -107.51953125 357.77734375 C-112.6292767 365.03900235 -117.7801433 372.26624543 -123 379.44921875 C-128.13705289 386.52288966 -133.1037837 393.7005922 -138.01904297 400.9296875 C-142.08301526 406.89899774 -146.20607453 412.81282079 -150.5625 418.57421875 C-151.13298443 419.43274035 -151.70346886 420.29126196 -152.29124069 421.17579937 C-154.5625 423.57421875 -154.5625 423.57421875 -157.33482742 424.18945789 C-158.94427797 424.18254445 -158.94427797 424.18254445 -160.58624268 424.17549133 C-161.82020782 424.18236465 -163.05417297 424.18923798 -164.32553101 424.19631958 C-165.69000853 424.17862505 -167.0544799 424.16045102 -168.41894531 424.1418457 C-169.85794017 424.14043511 -171.29693863 424.14122744 -172.7359314 424.14405823 C-176.64084389 424.14549338 -180.54498914 424.11608847 -184.44972324 424.08118844 C-188.5309568 424.04994102 -192.61220776 424.04699549 -196.69354248 424.0410614 C-204.42134306 424.02551814 -212.14879015 423.98448337 -219.87643504 423.93431395 C-228.67437572 423.87843532 -237.47233325 423.85093775 -246.2704072 423.82583678 C-264.36797191 423.77356777 -282.46520754 423.68561631 -300.5625 423.57421875 C-300.82091001 418.54634372 -299.2030507 416.25667946 -296.0625 412.51171875 C-295.12841219 411.35014092 -294.19746761 410.18602909 -293.26953125 409.01953125 C-292.574646 408.14796387 -292.574646 408.14796387 -291.86572266 407.25878906 C-290.0285498 404.8840246 -288.38656328 402.40289099 -286.75 399.88671875 C-283.436196 394.81619938 -279.94270665 389.90654079 -276.375 385.01171875 C-271.80026597 378.73242447 -267.35356396 372.3836986 -263 365.94921875 C-258.40996928 359.16838139 -253.62377617 352.58460622 -248.66210938 346.07202148 C-245.31328014 341.65069504 -242.29615707 337.11249506 -239.3828125 332.390625 C-236.74622258 328.31126592 -233.85006441 324.43910656 -230.95849609 320.53833008 C-225.87945517 313.67947634 -220.9743547 306.70245177 -216.06982422 299.71826172 C-214.10558581 296.92429642 -212.13370674 294.13576992 -210.16186523 291.34716797 C-205.27606083 284.43633154 -200.41291853 277.50993219 -195.5625 270.57421875 C-187.21211655 258.63511769 -178.82568688 246.72256156 -170.34619141 234.87475586 C-167.1095951 230.34905038 -163.89493739 225.80812823 -160.6875 221.26171875 C-160.18404053 220.54814209 -159.68058105 219.83456543 -159.16186523 219.09936523 C-156.63544696 215.51715439 -154.11142352 211.93327447 -151.58984375 208.34765625 C-146.50173348 201.11824364 -141.37777219 193.91820475 -136.1875 186.76171875 C-130.97566317 179.57483717 -125.86942209 172.319191 -120.79345703 165.03588867 C-116.41395249 158.76272471 -111.95227654 152.5538137 -107.45703125 146.36328125 C-103.43202831 140.80819245 -99.48492079 135.20211048 -95.5625 129.57421875 C-89.00076613 120.16353757 -82.30233591 110.85781235 -75.5625 101.57421875 C-69.18171262 92.77398603 -62.81700893 83.96480652 -56.5625 75.07421875 C-50.84458009 66.94637541 -45.03425905 58.88755831 -39.20361328 50.84033203 C-37.02771262 47.83576347 -34.85583958 44.82829691 -32.68432617 41.82055664 C-31.60532286 40.32606477 -30.52605958 38.83176057 -29.4465332 37.33764648 C-26.12016805 32.73372429 -22.79962427 28.12566455 -19.48242188 23.51513672 C-17.85275508 21.25504619 -16.21614935 19.00013154 -14.578125 16.74609375 C-12.66292829 14.10936908 -10.77830954 11.45571114 -8.921875 8.77734375 C-8.13561436 7.66782863 -7.34917 6.55844367 -6.5625 5.44921875 C-5.9025 4.49789063 -5.2425 3.5465625 -4.5625 2.56640625 C-2.5625 0.57421875 -2.5625 0.57421875 0 0 Z " fill="#FDFCFC" transform="translate(1027.5625,343.42578125)"/>
<path d="M0 0 C18.84523227 -0.39783347 37.68960836 -0.69723837 56.53817463 -0.88080692 C65.29095966 -0.96832464 74.04113024 -1.08753151 82.79223633 -1.2824707 C90.42358066 -1.45238451 98.05303177 -1.56169312 105.6862151 -1.59950441 C109.72598406 -1.62159976 113.76033966 -1.67314536 117.79836464 -1.79741096 C142.32315744 -2.52338598 142.32315744 -2.52338598 148.39690781 1.64497757 C152.13242114 5.54594129 154.29846672 9.87799543 156.1597805 14.90386391 C157.43207372 18.07791514 159.25275635 20.68767429 161.1875 23.5 C167.46076688 33.25955782 173.71132583 43.03374409 179.95996094 52.80908203 C181.27776055 54.8703124 182.59608298 56.93120867 183.91503906 58.99169922 C190.31887509 68.99790511 196.6651927 79.02919768 202.82641602 89.18676758 C206.39225575 95.04830672 210.05664776 100.8430993 213.75 106.625 C224.08020757 122.79729443 234.21208921 139.09218157 244.29711914 155.41821289 C247.83188561 161.13323158 251.40346303 166.82368025 255 172.5 C259.69493047 179.90988534 264.32817129 187.35600718 268.93798828 194.8190918 C273.06398136 201.49593161 277.21319494 208.15792745 281.375 214.8125 C281.99979248 215.81152344 282.62458496 216.81054688 283.26831055 217.83984375 C285.17852705 220.89344623 287.08917851 223.94677606 289 227 C301.44827379 246.89059039 313.89067749 266.78197046 326.02026367 286.86914062 C328.57157623 291.07972876 331.1396395 295.26275454 333.8828125 299.3515625 C334.30916992 299.989729 334.73552734 300.62789551 335.17480469 301.28540039 C336.27814336 302.91908676 337.39993532 304.54027038 338.5234375 306.16015625 C340.29175613 309.56112885 340.63368086 311.2171173 340 315 C338.55162649 317.58638127 337.11846465 319.81840585 335.375 322.1875 C334.88572021 322.87529541 334.39644043 323.56309082 333.89233398 324.27172852 C332.27880044 326.52754485 330.642742 328.76537726 329 331 C328.43845215 331.76634766 327.8769043 332.53269531 327.29833984 333.32226562 C324.96135657 336.50707546 322.61883848 339.68762949 320.26513672 342.86010742 C316.4361589 348.02364724 312.68657295 353.23399624 309 358.5 C304.70890639 364.62622854 300.32409667 370.67504519 295.875 376.6875 C290.16728418 384.40150812 284.53957576 392.16452337 279 400 C278.47535156 400.74185547 277.95070313 401.48371094 277.41015625 402.24804688 C273.93597043 407.16245523 270.4665108 412.0801754 267 417 C264.8359375 417.0078125 264.8359375 417.0078125 262 416 C259.84770568 413.52007685 258.2771426 410.70386469 256.625 407.875 C255.56464682 406.1263006 254.50204692 404.37896206 253.4375 402.6328125 C252.87933594 401.71016602 252.32117188 400.78751953 251.74609375 399.83691406 C248.81281683 395.07115933 245.7095111 390.41866493 242.625 385.75 C236.88732986 377.01346053 231.38856666 368.15481209 225.98876953 359.20629883 C221.73542642 352.16942047 217.33540535 345.24703319 212.83984375 338.36328125 C207.1396034 329.63181618 201.58400254 320.80603619 196 312 C195.48824219 311.19304687 194.97648438 310.38609375 194.44921875 309.5546875 C187.77921757 299.03051678 181.16448732 288.4723685 174.56665039 277.90283203 C170.2537142 270.99662239 165.91663657 264.10625725 161.56079102 257.22705078 C158.1466403 251.82981002 154.76051854 246.41556913 151.38256836 240.99560547 C146.03045575 232.40884717 140.64889262 223.84704678 135.13037109 215.36621094 C125.42747323 200.44912229 115.96077172 185.37785016 106.46777344 170.32666016 C103.47760576 165.58675696 100.48405297 160.84899035 97.49072266 156.11108398 C95.03841756 152.22912874 92.5876142 148.34624614 90.140625 144.4609375 C83.82687338 134.44110164 77.461022 124.4555724 71.07226562 114.48339844 C59.35584953 96.19395005 47.7239933 77.85152877 36.1484375 59.47265625 C30.44330972 50.4196439 24.70384776 41.38915435 18.9375 32.375 C18.26106445 31.31635742 17.58462891 30.25771484 16.88769531 29.16699219 C13.79739413 24.33774187 10.69405808 19.51908768 7.53515625 14.734375 C7.01767822 13.94756348 6.5002002 13.16075195 5.96704102 12.35009766 C5.0164581 10.90832486 4.06025151 9.47023784 3.09741211 8.03662109 C0 3.3328977 0 3.3328977 0 0 Z " fill="#009261" transform="translate(494,223)"/>
<path d="M0 0 C19.42742396 -0.53884436 38.85332015 -0.94359795 58.28668308 -1.19167995 C67.31175486 -1.30997077 76.33216866 -1.47099068 85.35424805 -1.73510742 C93.22442981 -1.9653918 101.09123926 -2.11296375 108.96469635 -2.16403538 C113.13053766 -2.19387489 117.28673973 -2.26314476 121.4494648 -2.43179131 C146.64059079 -3.41314712 146.64059079 -3.41314712 153.82804489 2.21418381 C158.6243578 7.58356771 161.79657993 13.55643182 164.68029594 20.1131115 C166.67823149 24.48364983 169.23408889 28.45530397 171.8125 32.5 C172.69867255 33.95759791 173.58194768 35.41696564 174.4609375 36.87890625 C177.23679443 41.42805088 180.18891332 45.84734754 183.17016602 50.26342773 C188.06264591 57.53179006 192.68983682 64.96552646 197.35107422 72.38330078 C200.32257295 77.09880617 203.31814365 81.79898869 206.3125 86.5 C206.87485352 87.38308838 207.43720703 88.26617676 208.01660156 89.17602539 C209.12074321 90.90973574 210.22499088 92.64337856 211.3293457 94.37695312 C213.6410186 98.0064451 215.95092062 101.63706309 218.26098633 105.26757812 C219.94806319 107.91839438 221.63600589 110.56865711 223.32421875 113.21875 C228.89780856 121.96974554 234.4646878 130.72473225 240 139.5 C249.1217441 153.9526335 258.26725062 168.38612418 267.625 182.6875 C275.4639499 194.67194239 283.11455409 206.76648711 290.69140625 218.91796875 C296.68551897 228.53027957 302.68708506 238.13188195 308.86523438 247.62719727 C313.83481163 255.26783054 318.72972454 262.95546017 323.60546875 270.65625 C325.75228735 274.04641158 327.91995072 277.42101398 330.11328125 280.78125 C331.03387482 282.20832001 331.95444905 283.6354025 332.875 285.0625 C333.29789307 285.69873291 333.72078613 286.33496582 334.15649414 286.99047852 C336.42913576 290.54271933 337.47196214 292.80017473 337 297 C335.78173828 299.18139648 335.78173828 299.18139648 334.0703125 301.37109375 C333.44503662 302.18521729 332.81976074 302.99934082 332.17553711 303.83813477 C331.49885986 304.69592529 330.82218262 305.55371582 330.125 306.4375 C328.73183717 308.24644479 327.33991192 310.05634337 325.94921875 311.8671875 C325.26778809 312.74858398 324.58635742 313.62998047 323.88427734 314.53808594 C321.49334507 317.66197309 319.19951131 320.84465481 316.9375 324.0625 C313.08790736 329.5087574 309.15244886 334.88718017 305.1875 340.25 C298.93637883 348.70899279 292.76188766 357.22047735 286.61767578 365.75732422 C284.97790627 368.0306298 283.33168691 370.29912929 281.68359375 372.56640625 C274.63338312 382.27443438 267.7454892 392.07777741 261 402 C258.77734375 401.88671875 258.77734375 401.88671875 256 401 C254.28143434 398.94940377 252.94716717 397.07344988 251.5625 394.8125 C251.14202393 394.15467529 250.72154785 393.49685059 250.28833008 392.8190918 C249.35435452 391.35376554 248.42757111 389.88383807 247.50683594 388.41015625 C245.91754438 385.86811376 244.3086489 383.33934499 242.6953125 380.8125 C240.31538954 377.08333993 237.94267245 373.34973491 235.57421875 369.61328125 C232.25314151 364.3844466 228.88536315 359.18737505 225.5 354 C220.35604777 346.11542389 215.28915323 338.18436469 210.24584961 330.23510742 C205.72075561 323.11125705 201.14027092 316.02497009 196.52539062 308.95898438 C193.25061142 303.94166211 190.01784623 298.89933089 186.8059082 293.84155273 C183.73648055 289.01188281 180.64841151 284.19414772 177.5625 279.375 C176.15362599 277.17449187 174.74477243 274.97397065 173.3359375 272.7734375 C172.9784996 272.21517273 172.62106171 271.65690796 172.25279236 271.08172607 C169.76343372 267.19343037 167.27587374 263.30398816 164.7890625 259.4140625 C158.96390255 250.30385139 153.13802115 241.19474686 147.25 232.125 C143.05847344 225.66648513 138.93653169 219.16622956 134.83325195 212.65136719 C123.20728919 194.20877621 111.41585874 175.86754915 99.484375 157.62109375 C92.68231229 147.21668977 85.93222904 136.78423153 79.27905273 126.28393555 C74.9910988 119.52776401 70.63357063 112.81945673 66.25 106.125 C61.65407306 99.10496979 57.12271844 92.05475221 52.70385742 84.92211914 C47.7859 77.00533301 42.66742767 69.21822126 37.57421875 61.41357422 C30.38270108 50.38762141 23.26815099 39.31428691 16.22241211 28.19458008 C13.40236048 23.74933446 10.56427646 19.31923446 7.6640625 14.92578125 C7.14972656 14.14396484 6.63539063 13.36214844 6.10546875 12.55664062 C5.14256348 11.09703883 4.17409632 9.64108589 3.19921875 8.18945312 C0 3.33228059 0 3.33228059 0 0 Z " fill="#009160" transform="translate(286,223)"/>
<path d="M0 0 C1.14947585 0.00092179 2.2989517 0.00184359 3.48326015 0.00279331 C4.79724285 0.00141865 6.11122555 0.00004398 7.4650259 -0.00137234 C8.93484424 0.00216728 10.40466235 0.0058021 11.87448025 0.00952244 C13.411554 0.0098043 14.94862789 0.0096466 16.48570156 0.00907993 C20.67147095 0.00879192 24.85721194 0.01468931 29.04297471 0.02165389 C33.41254392 0.02788674 37.7821137 0.02849117 42.15168667 0.0296793 C50.43191283 0.03279282 58.71212586 0.04100648 66.99234623 0.05102879 C76.41661395 0.06218929 85.84088228 0.06770021 95.26515496 0.07272422 C114.65699155 0.08318908 134.0488159 0.10078892 153.44064236 0.12304783 C153.44064236 4.8430688 151.9039475 6.72799045 149.19064236 10.31054783 C148.26406693 11.5690781 147.33832077 12.82821922 146.41329861 14.08789158 C145.92490505 14.74773045 145.4365115 15.40756931 144.93331814 16.0874033 C142.44617344 19.4792601 140.04212213 22.92894915 137.62814236 26.37304783 C130.77170992 36.11017637 123.78345922 45.7509118 116.79513454 55.39355564 C110.96601375 63.43933556 105.1573712 71.49689755 99.44064236 79.62304783 C93.72694185 87.74489343 87.92116763 95.79798351 82.09493923 103.83935642 C79.31146034 107.68183894 76.53189636 111.52714753 73.75314236 115.37304783 C73.20923855 116.12577976 72.66533474 116.8785117 72.104949 117.65405369 C68.46763193 122.69148191 64.84941329 127.74211837 61.24410915 132.80249119 C57.87314956 137.52940525 54.47041609 142.23295446 51.06564236 146.93554783 C46.81821254 152.80436186 42.60824483 158.6972919 38.44064236 164.62304783 C32.72284036 172.75097259 26.91239998 180.80971024 21.08175564 188.85693455 C18.9062656 191.86093612 16.7348044 194.86783662 14.56368923 197.87500095 C12.93851388 200.12599594 11.3126248 202.3764743 9.68673611 204.62695408 C7.53058937 207.61213891 5.37716732 210.59926171 3.22579861 213.58789158 C-5.22232571 225.31733865 -13.78439519 236.96002479 -22.3782053 248.58300877 C-28.32201083 256.6235994 -34.26110999 264.66409327 -40.05935764 272.81054783 C-40.46339817 273.37443211 -40.8674387 273.93831638 -41.28372288 274.51928806 C-42.99765386 276.91288754 -44.68827636 279.31514525 -46.32888889 281.75976658 C-47.09265842 282.8677158 -47.09265842 282.8677158 -47.87185764 283.99804783 C-48.28049046 284.6142197 -48.68912327 285.23039158 -49.11013889 285.86523533 C-50.55935764 287.12304783 -50.55935764 287.12304783 -52.98172092 287.41967869 C-55.55935764 287.12304783 -55.55935764 287.12304783 -57.03811741 285.68042088 C-57.43829075 285.00535496 -57.83846409 284.33028904 -58.25076389 283.63476658 C-58.71394016 282.8759116 -59.17711643 282.11705662 -59.65432835 281.33520603 C-60.38075535 280.08550022 -60.38075535 280.08550022 -61.12185764 278.81054783 C-62.189086 277.0472364 -63.25680741 275.28422332 -64.32498264 273.52148533 C-64.8644553 272.61753025 -65.40392796 271.71357517 -65.95974827 270.78222752 C-68.36168143 266.78927025 -70.86789574 262.86498459 -73.37185764 258.93554783 C-77.9214469 251.74510936 -82.43074655 244.52984334 -86.93435764 237.31054783 C-91.79719835 229.51847174 -96.68865026 221.74576669 -101.62185764 213.99804783 C-102.18517796 213.11012547 -102.74849827 212.2222031 -103.32888889 211.307374 C-106.36242341 206.53414553 -109.43187989 201.7883845 -112.54763889 197.06836033 C-113.19789036 196.07336521 -113.84814182 195.07837009 -114.51809788 194.05322361 C-115.76551607 192.1457815 -117.02363567 190.24528119 -118.29397678 188.3530283 C-120.49263246 184.97413501 -122.32236272 182.03429332 -123.34060764 178.11914158 C-122.04706194 173.15839379 -119.11070393 169.34088461 -116.18435764 165.18554783 C-114.88215244 163.28849607 -113.58006955 161.39136033 -112.27810764 159.49414158 C-111.31711155 158.10944675 -111.31711155 158.10944675 -110.33670139 156.6967783 C-108.45779006 153.97597016 -106.62713277 151.22790234 -104.81204319 148.46435642 C-99.62682343 140.57258441 -94.20964041 132.84227159 -88.80520725 125.09985447 C-82.8130918 116.50907092 -76.90698281 107.86174376 -71.01638889 99.20117283 C-67.5646148 94.12631639 -64.09101315 89.06679223 -60.60965061 84.01220798 C-58.25163323 80.5874891 -55.89919828 77.15911533 -53.55545139 73.72461033 C-44.26227271 60.10721161 -34.85140016 46.57325784 -25.4172678 33.05322361 C-14.985937 18.14387427 -14.985937 18.14387427 -4.84451389 3.03711033 C-2.89888939 0.13937171 -2.89888939 0.13937171 0 0 Z " fill="#009161" transform="translate(903.5593576431274,222.87695217132568)"/>
<path d="M0 0 C3.90325195 1.09314819 5.25689747 3.92595669 7.25390625 7.21875 C7.68541992 7.89800537 8.11693359 8.57726074 8.56152344 9.27709961 C9.9136713 11.41407258 11.24092911 13.56515773 12.56640625 15.71875 C13.35791404 16.98138576 14.15083319 18.24313812 14.9453125 19.50390625 C16.57522691 22.09616913 18.1946461 24.6946442 19.80859375 27.296875 C22.98088083 32.39961198 26.21128198 37.46499964 29.44140625 42.53125 C39.10948426 57.70423715 48.70975328 72.91773237 58.22827148 88.18505859 C59.11687866 89.60939209 59.11687866 89.60939209 60.0234375 91.0625 C60.60174316 91.99578125 61.18004883 92.9290625 61.77587891 93.890625 C63.00905653 95.83842014 64.27667306 97.7646944 65.57177734 99.671875 C66.21324707 100.62578125 66.8547168 101.5796875 67.515625 102.5625 C68.39287231 103.83383789 68.39287231 103.83383789 69.2878418 105.13085938 C70.837069 108.26658754 70.95450018 110.25960139 70.56640625 113.71875 C69.67114258 115.67480469 69.67114258 115.67480469 68.3984375 117.390625 C67.92414307 118.04538818 67.44984863 118.70015137 66.96118164 119.37475586 C66.43903076 120.06577393 65.91687988 120.75679199 65.37890625 121.46875 C64.56957642 122.57585327 64.56957642 122.57585327 63.74389648 123.70532227 C62.60244041 125.26550426 61.45524867 126.82150403 60.30273438 128.37353516 C58.08409224 131.37019943 55.90857057 134.39669433 53.7331543 137.42480469 C52.110875 139.68133075 50.48224801 141.93313634 48.8515625 144.18359375 C45.58507277 148.69187345 42.32515031 153.20486957 39.06640625 157.71875 C35.78252082 162.26654486 32.49795577 166.81384379 29.2109375 171.359375 C24.31295291 178.13415742 19.41896537 184.91133102 14.56640625 191.71875 C9.17305082 199.28482581 3.72844388 206.81363975 -1.71630859 214.34277344 C-3.49452709 216.80305527 -5.27093912 219.26463255 -7.046875 221.7265625 C-7.6349292 222.54157227 -8.2229834 223.35658203 -8.82885742 224.19628906 C-9.95557778 225.7579537 -11.08205494 227.31979385 -12.20825195 228.88183594 C-12.71831787 229.58856445 -13.22838379 230.29529297 -13.75390625 231.0234375 C-14.20008301 231.64202637 -14.64625977 232.26061523 -15.10595703 232.89794922 C-16.53067938 234.85189906 -17.97867438 236.78720992 -19.43359375 238.71875 C-22.39398338 238.40130875 -23.97714681 238.21443646 -26.0324707 235.98242188 C-26.49097412 235.22509766 -26.94947754 234.46777344 -27.421875 233.6875 C-27.95482178 232.82713135 -28.48776855 231.9667627 -29.03686523 231.08032227 C-29.60091064 230.13600342 -30.16495605 229.19168457 -30.74609375 228.21875 C-31.99269142 226.19612244 -33.24011892 224.17400614 -34.48828125 222.15234375 C-35.13506836 221.0938623 -35.78185547 220.03538086 -36.44824219 218.94482422 C-39.6881053 213.68024587 -43.03084403 208.48249017 -46.37109375 203.28125 C-47.36870728 201.72192749 -47.36870728 201.72192749 -48.38647461 200.13110352 C-53.60825301 191.97558571 -58.89876928 183.86618038 -64.2019043 175.76342773 C-68.15903772 169.70573049 -72.05499003 163.61605869 -75.84667969 157.45336914 C-77.99228421 153.97649397 -80.19981541 150.55680828 -82.48828125 147.171875 C-82.9997168 146.40794434 -83.51115234 145.64401367 -84.03808594 144.85693359 C-85.02462763 143.38852616 -86.02209155 141.92737593 -87.03222656 140.47509766 C-88.95611589 137.59763447 -90.30847238 135.22404782 -91.14453125 131.84765625 C-89.9852383 126.74549333 -86.9538992 122.98688006 -83.93359375 118.78125 C-83.26231445 117.8226709 -82.59103516 116.8640918 -81.89941406 115.87646484 C-80.47703281 113.84708222 -79.0488195 111.82177657 -77.61523438 109.80029297 C-74.78891348 105.80814634 -72.00164785 101.78954103 -69.21411133 97.77026367 C-67.19636815 94.86216129 -65.17308836 91.9579838 -63.1484375 89.0546875 C-57.17095762 80.47638896 -51.25481818 71.85624908 -45.36328125 63.21875 C-39.14547759 54.1069238 -32.87328225 45.03695353 -26.53735352 36.00683594 C-22.85663609 30.75852956 -19.19389334 25.4986203 -15.55859375 20.21875 C-15.11290039 19.57526611 -14.66720703 18.93178223 -14.20800781 18.26879883 C-12.11936083 15.23932338 -10.08630567 12.19335444 -8.15234375 9.0625 C-7.46140625 7.9590625 -6.77046875 6.855625 -6.05859375 5.71875 C-5.47335937 4.749375 -4.888125 3.78 -4.28515625 2.78125 C-2.43359375 0.71875 -2.43359375 0.71875 0 0 Z " fill="#009060" transform="translate(652.43359375,527.28125)"/>
<path d="M0 0 C4.74767696 1.78037886 6.42186248 5.48744398 8.9375 9.7265625 C9.4936499 10.6230249 10.0497998 11.5194873 10.62280273 12.44311523 C11.80589526 14.35050292 12.98072854 16.26303426 14.14794922 18.18017578 C16.46126372 21.95659069 18.84698215 25.68406655 21.23681641 29.41235352 C27.69460157 39.49068315 34.06698327 49.62409768 40.45214844 59.74853516 C42.51112234 63.0102693 44.57500113 66.26888916 46.63916016 69.52734375 C48.15006061 71.91733955 49.65334095 74.31200502 51.15625 76.70703125 C52.8903167 79.46517659 54.65594856 82.1953708 56.46875 84.90234375 C62.41037381 93.86959614 62.41037381 93.86959614 62.875 98.2265625 C61.46802734 104.0420495 58.40386304 108.30823236 54.9375 113.1015625 C54.47085937 113.75447266 54.00421875 114.40738281 53.5234375 115.08007812 C50.81210346 118.87246972 48.08077747 122.6497681 45.3359375 126.41796875 C42.14331168 130.80624292 38.99898962 135.22674106 35.875 139.6640625 C35.13781738 140.71049927 35.13781738 140.71049927 34.38574219 141.77807617 C32.90216871 143.88532523 31.41963951 145.99330465 29.9375 148.1015625 C23.29040104 157.55667687 16.62288308 166.99393776 9.81079102 176.33129883 C7.00986235 180.18115401 4.27399292 184.05935721 1.625 188.015625 C1.08939453 188.80582031 0.55378906 189.59601563 0.00195312 190.41015625 C-1.01876916 191.92148787 -2.0260059 193.44204141 -3.01757812 194.97265625 C-6.33988611 199.86032735 -6.33988611 199.86032735 -9.6484375 200.96484375 C-13.30466166 199.65735906 -14.45519192 196.92699371 -16.1875 193.6640625 C-16.97617233 192.26653513 -17.76795831 190.87076131 -18.5625 189.4765625 C-18.97242188 188.74953125 -19.38234375 188.0225 -19.8046875 187.2734375 C-21.80488227 183.81968505 -23.99355383 180.49683253 -26.1875 177.1640625 C-30.69813309 170.26308323 -35.08382768 163.28999836 -39.4375 156.2890625 C-44.11062269 148.778518 -48.84351484 141.31551826 -53.6875 133.9140625 C-55.26414687 131.48948755 -56.83886848 129.0636767 -58.41259766 126.63720703 C-59.56627472 124.86418395 -60.72524285 123.09459751 -61.88818359 121.32763672 C-63.73496957 118.51341791 -65.55688434 115.68436507 -67.375 112.8515625 C-67.94492676 111.99409424 -68.51485352 111.13662598 -69.10205078 110.25317383 C-72.49311447 104.90985489 -74.18195778 101.44515658 -73.0625 95.1015625 C-71.65643509 92.35459269 -69.84528279 90.09114505 -67.875 87.7265625 C-66.76375769 86.32178761 -65.65445087 84.91547995 -64.546875 83.5078125 C-63.97001953 82.78464844 -63.39316406 82.06148438 -62.79882812 81.31640625 C-59.96335981 77.69950966 -57.29782102 73.96436107 -54.625 70.2265625 C-53.5366388 68.71471382 -52.44809589 67.20299593 -51.359375 65.69140625 C-49.70005806 63.38246969 -48.04183926 61.07275412 -46.38476562 58.76220703 C-40.31026355 50.29423826 -34.19724925 41.88476693 -27.80078125 33.65625 C-23.63055678 28.27214994 -19.57535619 22.80009716 -15.50244141 17.34228516 C-14.29499583 15.7268708 -13.08154147 14.11592849 -11.86181641 12.50976562 C-10.62911381 10.85991781 -9.42953948 9.1849438 -8.25927734 7.49023438 C-3.93299364 1.41467373 -3.93299364 1.41467373 0 0 Z " fill="#009161" transform="translate(1130.0625,208.8984375)"/>
</svg>
